<svg width="89" height="89" viewBox="0 0 89 89" fill="none" xmlns="http://www.w3.org/2000/svg">
<g filter="url(#filter0_ddif_68_2955)">
<path d="M40.7367 62.9565L48.1434 70.3632C48.8729 71.0927 49.7389 71.6713 50.6921 72.0661C51.6452 72.4609 52.6667 72.6641 53.6984 72.6641C54.7301 72.6641 55.7516 72.4609 56.7048 72.0661C57.6579 71.6713 58.5239 71.0927 59.2534 70.3632C59.9829 69.6337 60.5616 68.7676 60.9564 67.8145C61.3512 66.8614 61.5544 65.8398 61.5544 64.8082C61.5544 63.7765 61.3512 62.755 60.9564 61.8018C60.5616 60.8487 59.9829 59.9827 59.2534 59.2532M51.8467 51.8466L61.105 61.1049C62.5783 62.5782 64.5765 63.4059 66.66 63.4059C68.7435 63.4059 70.7417 62.5782 72.215 61.1049C73.6883 59.6316 74.516 57.6334 74.516 55.5499C74.516 53.4664 73.6883 51.4682 72.215 49.9949L57.8461 35.626C55.7629 33.5454 52.9392 32.3768 49.995 32.3768C47.0508 32.3768 44.2271 33.5454 42.1439 35.626L38.885 38.8849C37.4117 40.3582 35.4135 41.1859 33.33 41.1859C31.2465 41.1859 29.2483 40.3582 27.775 38.8849C26.3017 37.4116 25.4741 35.4134 25.4741 33.3299C25.4741 31.2464 26.3017 29.2482 27.775 27.7749L38.1814 17.3685C41.5597 13.999 45.9654 11.8526 50.701 11.269C55.4366 10.6855 60.2316 11.6981 64.3269 14.1466L66.0675 15.1836C67.6443 16.1353 69.5192 16.4654 71.3262 16.1094L77.77 14.8132M77.7701 11.1098L81.4734 51.8465H74.0667M11.1101 11.1098L7.40674 51.8465L31.4784 75.9182C32.9517 77.3915 34.9499 78.2191 37.0334 78.2191C39.1169 78.2191 41.1151 77.3915 42.5884 75.9182C44.0617 74.4449 44.8894 72.4467 44.8894 70.3632C44.8894 68.2796 44.0617 66.2815 42.5884 64.8082M11.1101 14.8132H40.7367" stroke="#01C38E" stroke-width="7.40667" stroke-linecap="round" stroke-linejoin="round" shape-rendering="crispEdges"/>
</g>
<g filter="url(#filter1_ddi_68_2955)">
<path d="M40.7367 62.9565L48.1434 70.3632C48.8729 71.0927 49.7389 71.6713 50.6921 72.0661C51.6452 72.4609 52.6667 72.6641 53.6984 72.6641C54.7301 72.6641 55.7516 72.4609 56.7048 72.0661C57.6579 71.6713 58.5239 71.0927 59.2534 70.3632C59.9829 69.6337 60.5616 68.7676 60.9564 67.8145C61.3512 66.8614 61.5544 65.8398 61.5544 64.8082C61.5544 63.7765 61.3512 62.755 60.9564 61.8018C60.5616 60.8487 59.9829 59.9827 59.2534 59.2532M51.8467 51.8466L61.105 61.1049C62.5783 62.5782 64.5765 63.4059 66.66 63.4059C68.7435 63.4059 70.7417 62.5782 72.215 61.1049C73.6883 59.6316 74.516 57.6334 74.516 55.5499C74.516 53.4664 73.6883 51.4682 72.215 49.9949L57.8461 35.626C55.7629 33.5454 52.9392 32.3768 49.995 32.3768C47.0508 32.3768 44.2271 33.5454 42.1439 35.626L38.885 38.8849C37.4117 40.3582 35.4135 41.1859 33.33 41.1859C31.2465 41.1859 29.2483 40.3582 27.775 38.8849C26.3017 37.4116 25.4741 35.4134 25.4741 33.3299C25.4741 31.2464 26.3017 29.2482 27.775 27.7749L38.1814 17.3685C41.5597 13.999 45.9654 11.8526 50.701 11.269C55.4366 10.6855 60.2316 11.6981 64.3269 14.1466L66.0675 15.1836C67.6443 16.1353 69.5192 16.4654 71.3262 16.1094L77.77 14.8132M77.7701 11.1098L81.4734 51.8465H74.0667M11.1101 11.1098L7.40674 51.8465L31.4784 75.9182C32.9517 77.3915 34.9499 78.2191 37.0334 78.2191C39.1169 78.2191 41.1151 77.3915 42.5884 75.9182C44.0617 74.4449 44.8894 72.4467 44.8894 70.3632C44.8894 68.2796 44.0617 66.2815 42.5884 64.8082M11.1101 14.8132H40.7367" stroke="#01C38E" stroke-width="7.40667" stroke-linecap="round" stroke-linejoin="round" shape-rendering="crispEdges"/>
</g>
<defs>
<filter id="filter0_ddif_68_2955" x="1.94361" y="6.17266" width="84.9931" height="79.2698" filterUnits="userSpaceOnUse" color-interpolation-filters="sRGB">
<feFlood flood-opacity="0" result="BackgroundImageFix"/>
<feColorMatrix in="SourceAlpha" type="matrix" values="0 0 0 0 0 0 0 0 0 0 0 0 0 0 0 0 0 0 127 0" result="hardAlpha"/>
<feOffset dy="1.76"/>
<feGaussianBlur stdDeviation="0.88"/>
<feComposite in2="hardAlpha" operator="out"/>
<feColorMatrix type="matrix" values="0 0 0 0 0 0 0 0 0 0 0 0 0 0 0 0 0 0 0.25 0"/>
<feBlend mode="normal" in2="BackgroundImageFix" result="effect1_dropShadow_68_2955"/>
<feColorMatrix in="SourceAlpha" type="matrix" values="0 0 0 0 0 0 0 0 0 0 0 0 0 0 0 0 0 0 127 0" result="hardAlpha"/>
<feOffset dy="1.76"/>
<feGaussianBlur stdDeviation="0.88"/>
<feComposite in2="hardAlpha" operator="out"/>
<feColorMatrix type="matrix" values="0 0 0 0 0 0 0 0 0 0 0 0 0 0 0 0 0 0 0.25 0"/>
<feBlend mode="normal" in2="effect1_dropShadow_68_2955" result="effect2_dropShadow_68_2955"/>
<feBlend mode="normal" in="SourceGraphic" in2="effect2_dropShadow_68_2955" result="shape"/>
<feColorMatrix in="SourceAlpha" type="matrix" values="0 0 0 0 0 0 0 0 0 0 0 0 0 0 0 0 0 0 127 0" result="hardAlpha"/>
<feOffset dy="1.76"/>
<feGaussianBlur stdDeviation="0.682"/>
<feComposite in2="hardAlpha" operator="arithmetic" k2="-1" k3="1"/>
<feColorMatrix type="matrix" values="0 0 0 0 0.0470588 0 0 0 0 0.054902 0 0 0 0 0.0470588 0 0 0 0.33 0"/>
<feBlend mode="normal" in2="shape" result="effect3_innerShadow_68_2955"/>
<feGaussianBlur stdDeviation="0.616" result="effect4_foregroundBlur_68_2955"/>
</filter>
<filter id="filter1_ddi_68_2955" x="1.94361" y="7.40466" width="84.9931" height="78.0378" filterUnits="userSpaceOnUse" color-interpolation-filters="sRGB">
<feFlood flood-opacity="0" result="BackgroundImageFix"/>
<feColorMatrix in="SourceAlpha" type="matrix" values="0 0 0 0 0 0 0 0 0 0 0 0 0 0 0 0 0 0 127 0" result="hardAlpha"/>
<feOffset dy="1.76"/>
<feGaussianBlur stdDeviation="0.88"/>
<feComposite in2="hardAlpha" operator="out"/>
<feColorMatrix type="matrix" values="0 0 0 0 0 0 0 0 0 0 0 0 0 0 0 0 0 0 0.25 0"/>
<feBlend mode="normal" in2="BackgroundImageFix" result="effect1_dropShadow_68_2955"/>
<feColorMatrix in="SourceAlpha" type="matrix" values="0 0 0 0 0 0 0 0 0 0 0 0 0 0 0 0 0 0 127 0" result="hardAlpha"/>
<feOffset dy="1.76"/>
<feGaussianBlur stdDeviation="0.88"/>
<feComposite in2="hardAlpha" operator="out"/>
<feColorMatrix type="matrix" values="0 0 0 0 0 0 0 0 0 0 0 0 0 0 0 0 0 0 0.25 0"/>
<feBlend mode="normal" in2="effect1_dropShadow_68_2955" result="effect2_dropShadow_68_2955"/>
<feBlend mode="normal" in="SourceGraphic" in2="effect2_dropShadow_68_2955" result="shape"/>
<feColorMatrix in="SourceAlpha" type="matrix" values="0 0 0 0 0 0 0 0 0 0 0 0 0 0 0 0 0 0 127 0" result="hardAlpha"/>
<feOffset dy="1.76"/>
<feGaussianBlur stdDeviation="0.682"/>
<feComposite in2="hardAlpha" operator="arithmetic" k2="-1" k3="1"/>
<feColorMatrix type="matrix" values="0 0 0 0 0.0470588 0 0 0 0 0.054902 0 0 0 0 0.0470588 0 0 0 0.33 0"/>
<feBlend mode="normal" in2="shape" result="effect3_innerShadow_68_2955"/>
</filter>
</defs>
</svg>
