<svg width="18" height="18" viewBox="0 0 18 18" fill="none" xmlns="http://www.w3.org/2000/svg">
<path d="M16.5 0.250033H1.5C0.808333 0.250033 0.25 0.816699 0.25 1.50837V16.5C0.25 17.1917 0.808333 17.7584 1.5 17.7584H16.5C17.1833 17.7584 17.75 17.1917 17.75 16.5V1.50003C17.75 0.808366 17.1833 0.241699 16.5 0.241699V0.250033ZM5.54167 15.25H2.94167V6.90003H5.54167V15.25ZM4.24167 5.75003C3.84384 5.75003 3.46231 5.592 3.18101 5.31069C2.8997 5.02939 2.74167 4.64786 2.74167 4.25003C2.74167 3.85221 2.8997 3.47068 3.18101 3.18937C3.46231 2.90807 3.84384 2.75003 4.24167 2.75003C4.63949 2.75003 5.02102 2.90807 5.30233 3.18937C5.58363 3.47068 5.74167 3.85221 5.74167 4.25003C5.74167 4.64786 5.58363 5.02939 5.30233 5.31069C5.02102 5.592 4.63949 5.75003 4.24167 5.75003ZM15.2583 15.25H12.675V11.1834C12.675 10.2167 12.65 8.97503 11.3167 8.97503C9.96667 8.97503 9.75833 10.025 9.75833 11.1167V15.25H7.175V6.90003H9.65833V8.0417H9.69167C9.94126 7.61559 10.3016 7.26506 10.7345 7.02736C11.1673 6.78966 11.6565 6.67366 12.15 6.6917C14.775 6.6917 15.2583 8.42503 15.2583 10.675V15.25Z" fill="#A1A1AA"/>
</svg>
