<svg width="179" height="26" viewBox="0 0 179 26" fill="none" xmlns="http://www.w3.org/2000/svg">
<path d="M16.333 1.08203V3.80673H3.1465V11.6083H14.9382V14.333H3.1465V24.5349H0V1.08203H16.333Z" fill="white"/>
<path d="M39.5765 24.5354H36.365L33.9321 17.6907H23.8759L21.4431 24.5354H18.2153L26.6331 1.08203H31.1744L39.5759 24.5354H39.5765ZM28.9203 3.61233L24.8652 14.966H32.9423L28.9197 3.61233H28.9203Z" fill="white"/>
<path d="M48.2378 1.08203V21.8107H60.8893V24.5354H45.0913V1.08203H48.2378Z" fill="white"/>
<path d="M77.7245 24.8598H72.0314C69.8255 24.8598 68.2116 24.3788 67.1899 23.4163C66.1681 22.4537 65.6572 20.9347 65.6572 18.8587V6.7589C65.6572 4.68289 66.1681 3.16387 67.1899 2.20132C68.2116 1.23929 69.8255 0.757751 72.0314 0.757751H77.7245C79.9305 0.757751 81.5443 1.23353 82.5661 2.18508C83.5878 3.13662 84.0987 4.63993 84.0987 6.69393V6.96954L80.936 7.35886V7.13198C80.936 5.78063 80.6415 4.83432 80.052 4.29357C79.4625 3.75283 78.4162 3.48245 76.9134 3.48245H72.8258C71.3225 3.48245 70.2793 3.75283 69.6955 4.29357C69.1118 4.83432 68.8194 5.80211 68.8194 7.19695V18.4211C68.8194 19.8055 69.1113 20.7728 69.6955 21.3245C70.2798 21.8763 71.323 22.1519 72.8258 22.1519H76.9134C78.4162 22.1519 79.4625 21.8789 80.052 21.3329C80.6415 20.7869 80.936 19.838 80.936 18.4861V18.2592L84.0987 18.6648V18.9242C84.0987 20.9787 83.5878 22.482 82.5661 23.433C81.5443 24.3846 79.9305 24.8603 77.7245 24.8603V24.8598Z" fill="white"/>
<path d="M97.1071 0.757751H102.8C105.006 0.757751 106.62 1.23877 107.642 2.20132C108.664 3.16387 109.174 4.68289 109.174 6.7589V18.8587C109.174 20.9347 108.664 22.4542 107.642 23.4163C106.62 24.3788 105.006 24.8598 102.8 24.8598H97.1071C94.9012 24.8598 93.2873 24.3788 92.2656 23.4163C91.2438 22.4537 90.7329 20.9347 90.7329 18.8587V6.7589C90.7329 4.68289 91.2438 3.16387 92.2656 2.20132C93.2873 1.23929 94.9012 0.757751 97.1071 0.757751ZM106.012 18.4206V7.19695C106.012 5.80211 105.72 4.83432 105.136 4.29357C104.552 3.75283 103.503 3.48245 101.99 3.48245H97.902C96.3987 3.48245 95.3555 3.75283 94.7718 4.29357C94.188 4.83432 93.8957 5.80211 93.8957 7.19695V18.4211C93.8957 19.8055 94.1875 20.7728 94.7718 21.3245C95.356 21.8763 96.3992 22.1519 97.902 22.1519H101.99C103.492 22.1519 104.539 21.8763 105.128 21.3245C105.718 20.7733 106.012 19.8055 106.012 18.4211L106.012 18.4206Z" fill="white"/>
<path d="M131.443 19.4586V1.08203H134.606V24.5354H131.411L119.619 6.20709V24.5354H116.457V1.08203H119.619L131.443 19.4586Z" fill="white"/>
<path d="M145.36 24.5354H142.214V1.08203H145.36V24.5354Z" fill="white"/>
<path d="M156.085 8.67755C156.169 8.83412 156.295 8.96502 156.448 9.05577L160.309 11.3441L160.286 10.1447C160.254 8.53065 161.07 7.09772 162.326 6.27062L161.309 4.38659C161.225 4.23002 161.099 4.09911 160.946 4.00837L154.415 0.137285C153.949 -0.139035 153.347 0.0149303 153.071 0.480918L152.617 1.24628C152.442 1.54269 152.434 1.90938 152.598 2.21247L156.085 8.67718V8.67755Z" fill="white"/>
<path d="M160.395 15.6867L160.379 14.8812L156.859 16.7801C156.702 16.8645 156.571 16.9902 156.48 17.1434L152.609 23.6739C152.333 24.1403 152.487 24.742 152.953 25.0184L153.718 25.4721C154.014 25.6476 154.381 25.655 154.684 25.4914L161.149 22.0041C161.305 21.9197 161.436 21.794 161.527 21.6408L162.752 19.5738C161.375 18.8199 160.428 17.3695 160.395 15.6867H160.395Z" fill="white"/>
<path d="M177.608 0.599866L176.843 0.146151C176.546 -0.029385 176.18 -0.0368229 175.877 0.126812L169.412 3.6141C169.255 3.69852 169.125 3.82422 169.034 3.97744L167.815 6.03329C169.223 6.77857 170.195 8.2446 170.228 9.94975L170.243 10.7051L173.703 8.83889C173.86 8.75447 173.99 8.62877 174.081 8.47554L177.952 1.94502C178.229 1.47866 178.075 0.87693 177.609 0.60061L177.608 0.599866Z" fill="white"/>
<path d="M174.476 16.9407C174.391 16.7842 174.266 16.6533 174.112 16.5625L170.314 14.3107L170.337 15.4911C170.369 17.1215 169.535 18.5674 168.258 19.39L169.251 21.2309C169.336 21.3875 169.461 21.5184 169.615 21.6092L176.145 25.4806C176.611 25.7569 177.213 25.603 177.49 25.137L177.943 24.3716C178.119 24.0752 178.126 23.7085 177.963 23.4054L174.475 16.9407H174.476Z" fill="white"/>
<path d="M161.462 12.5902V10.9118C161.462 9.88389 161.863 8.9177 162.59 8.19064C163.316 7.46395 164.283 7.06342 165.311 7.06342C167.433 7.06342 169.159 8.78977 169.159 10.9118V12.5902H161.462ZM165.311 7.06565C164.327 7.06565 163.402 7.4487 162.706 8.14452C162.011 8.84034 161.628 9.76525 161.628 10.7493V12.588H168.994V10.7493C168.994 8.71836 167.342 7.06602 165.311 7.06602V7.06565Z" fill="black"/>
<path d="M165.31 6.84033C164.186 6.84033 163.168 7.29591 162.432 8.03264C161.695 8.76937 161.239 9.78725 161.239 10.9115V12.8126H169.382V10.9115C169.382 8.663 167.559 6.84033 165.311 6.84033H165.31ZM161.85 12.3649V10.749C161.85 9.7932 162.237 8.92817 162.863 8.30189C163.49 7.67561 164.355 7.28847 165.31 7.28847C167.222 7.28847 168.771 8.8378 168.771 10.749V12.3649H161.85Z" fill="white"/>
<path d="M169.383 12.813V14.7253C169.383 16.9738 167.56 18.7969 165.311 18.7969C163.063 18.7969 161.24 16.9738 161.24 14.7253V12.813" fill="white"/>
</svg>
