<svg width="384" height="326" viewBox="0 0 384 326" fill="none" xmlns="http://www.w3.org/2000/svg">
<mask id="mask0_120_576" style="mask-type:alpha" maskUnits="userSpaceOnUse" x="0" y="-1" width="384" height="327">
<rect width="384" height="326" transform="translate(0 -0.000244141)" fill="url(#paint0_linear_120_576)"/>
</mask>
<g mask="url(#mask0_120_576)">
<mask id="mask1_120_576" style="mask-type:alpha" maskUnits="userSpaceOnUse" x="0" y="-1" width="384" height="327">
<rect width="384" height="326" transform="translate(0 -0.000244141)" fill="url(#paint1_linear_120_576)"/>
</mask>
<g mask="url(#mask1_120_576)">
<g clip-path="url(#clip0_120_576)">
<path opacity="0.1" d="M29.5214 -0.000244141H30.5088V324.06H29.5214V-0.000244141ZM61.1184 -0.000244141H62.1058V324.06H61.1184V-0.000244141ZM92.7154 -0.000244141H93.7028V324.06H92.7154V-0.000244141ZM124.312 -0.000244141H125.3V324.06H124.312V-0.000244141ZM155.909 -0.000244141H156.897V324.06H155.909V-0.000244141ZM187.506 -0.000244141H188.494V324.06H187.506V-0.000244141ZM219.103 -0.000244141H220.091V324.06H219.103V-0.000244141ZM250.7 -0.000244141H251.688V324.06H250.7V-0.000244141ZM282.297 -0.000244141H283.285V324.06H282.297V-0.000244141ZM313.894 -0.000244141H314.882V324.06H313.894V-0.000244141ZM345.491 -0.000244141H346.479V324.06H345.491V-0.000244141Z" fill="#D4D4D8"/>
<g filter="url(#filter0_f_120_576)">
<path d="M378.076 129.94C369.228 125.042 358.999 121.507 345.807 120.145C324.351 117.913 306.903 108.395 288.577 98.3927L288.518 98.3631L284.825 96.3488C265.126 85.6456 244.124 74.9719 216.111 73.0465C187.901 71.0915 170.039 84.5891 155.129 99.9627C151.621 103.632 148.184 107.368 144.821 111.169L144.396 111.634C141.044 115.432 137.6 119.149 134.068 122.781C127.156 129.772 120.106 135.538 111.97 138.579C103.498 141.759 95.8751 146.893 88.1239 152.65C86.1491 154.121 84.1743 155.622 82.16 157.152C76.2553 161.635 70.1136 166.295 63.2709 170.64C47.196 180.859 27.2899 189.282 -2.07557 189.025V191C27.7145 191.266 47.9859 182.706 64.3373 172.318C71.2492 167.915 77.4797 163.185 83.4041 158.692C85.3987 157.172 87.3538 155.681 89.2989 154.249C97.0303 148.503 104.465 143.506 112.661 140.436C121.202 137.246 128.499 131.233 135.47 124.173C138.965 120.639 142.402 116.827 145.867 112.957L146.282 112.502C149.62 108.77 153.006 104.998 156.551 101.345C171.293 86.1393 188.622 73.1255 215.973 75.0114C243.532 76.9171 264.208 87.4031 283.877 98.0866L287.688 100.16C305.955 110.133 323.729 119.839 345.61 122.11C358.959 123.492 369.199 127.145 378.076 132.211V129.94Z" fill="white"/>
</g>
<path d="M378.076 130.512C369.219 125.576 358.989 122.001 345.758 120.639C324.203 118.397 306.666 108.829 288.35 98.8371C287.106 98.146 285.852 97.4647 284.588 96.7834C264.899 86.0801 243.976 75.4558 216.082 73.5304C188.079 71.5952 170.345 84.9742 155.485 100.308C151.93 103.981 148.524 107.783 145.176 111.505L144.771 111.969C141.412 115.771 137.962 119.491 134.423 123.127C127.492 130.137 120.373 135.963 112.138 139.044C103.745 142.193 96.1614 147.298 88.4202 153.055C86.4453 154.506 84.4705 156.017 82.476 157.527C76.5515 162.02 70.4 166.71 63.5375 171.055C47.3934 181.323 27.3985 189.775 -2.07557 189.519V190.506C27.6058 190.773 47.7884 182.242 64.0806 171.894C70.9727 167.51 77.1736 162.8 83.098 158.298C85.0926 156.787 87.0575 155.296 89.0027 153.854C96.744 148.098 104.219 143.072 112.493 139.972C120.926 136.812 128.163 130.868 135.124 123.828C138.61 120.303 142.036 116.501 145.502 112.631L145.907 112.177C149.264 108.444 152.651 104.663 156.196 101C170.977 85.7444 188.444 72.6122 216.013 74.5178C243.68 76.4334 264.445 86.9589 284.114 97.6523L287.916 99.7258C306.192 109.698 323.887 119.365 345.659 121.616C358.969 122.998 369.199 126.622 378.076 131.648V130.512Z" fill="white"/>
<g filter="url(#filter1_f_120_576)">
<path d="M378.076 15.1562C376.772 15.1956 375.439 15.245 374.086 15.2746C366.049 15.4524 356.836 15.2746 345.313 13.4677C333.366 11.6114 323.136 15.8078 313.884 22.9762C304.662 30.115 296.328 40.2752 288.162 50.4651L286.701 52.2917L286.671 52.3214C278.97 61.9286 271.377 71.4075 263.181 78.497C254.482 86.0307 245.21 90.7406 234.596 90.079C223.31 89.3681 214.107 93.4756 206 99.8443C198.279 105.897 191.486 114.043 184.801 122.08L183.873 123.196C176.842 131.628 169.881 139.824 161.913 145.511C153.984 151.159 145.097 154.299 134.196 152.679C107.043 148.631 94.7494 145.491 86.2281 142.075C82.3639 140.474 78.5956 138.651 74.9421 136.615L74.8433 136.555C70.2297 134.037 65.5087 131.721 60.6938 129.614C39.6917 120.481 20.4669 114.122 -2.07557 114.892V116.867C20.0621 116.106 38.9906 122.337 59.9039 131.431C64.6694 133.515 69.3411 135.808 73.9053 138.303L74.0435 138.372C77.7858 140.376 81.1726 142.183 85.4974 143.911C94.236 147.417 106.727 150.586 133.91 154.644C145.423 156.352 154.813 153.005 163.058 147.12C171.273 141.255 178.393 132.862 185.393 124.47L186.272 123.413C193.006 115.317 199.671 107.319 207.215 101.394C215.065 95.243 223.803 91.3824 234.467 92.0538C245.822 92.7746 255.578 87.6994 264.484 79.9978C272.818 72.7899 280.52 63.1629 288.182 53.605L288.232 53.5457L289.703 51.6993C297.898 41.4897 306.094 31.5171 315.099 24.5462C324.074 17.5851 333.771 13.6751 345.017 15.4227C354.643 16.924 364.388 17.5354 374.126 17.2494C375.479 17.2198 376.792 17.1803 378.076 17.1309V15.1562Z" fill="#01C38E"/>
</g>
<path d="M378.076 15.6499C376.782 15.6894 375.449 15.7387 374.096 15.7684C366.039 15.9461 356.797 15.7684 345.234 13.9615C333.465 12.1249 323.363 16.2522 314.19 23.3712C305.017 30.4705 296.723 40.5814 288.547 50.7712L287.066 52.6077L287.047 52.6374C279.365 62.2348 271.742 71.7532 263.507 78.8722C254.749 86.4455 245.368 91.254 234.576 90.5727C223.428 89.8717 214.344 93.92 206.306 100.229C198.624 106.252 191.871 114.369 185.176 122.416L184.248 123.512C177.237 131.934 170.227 140.179 162.199 145.906C154.191 151.623 145.176 154.822 134.127 153.173C106.974 149.125 94.6211 145.965 86.0405 142.539C81.7947 140.831 78.477 139.063 74.715 137.049L74.6162 137C70.0126 134.485 65.3015 132.172 60.4963 130.068C39.514 120.955 20.3583 114.616 -2.07557 115.386V116.373C20.1608 115.613 39.1585 121.873 60.1014 130.986C66.1245 133.593 70.3408 135.844 74.1423 137.869L74.2607 137.938C78.0129 139.932 81.38 141.729 85.6752 143.457C94.3643 146.933 106.806 150.102 133.979 154.151C145.334 155.849 154.606 152.541 162.772 146.715C170.928 140.89 178.007 132.556 185.008 124.144L185.897 123.077C192.631 115.001 199.326 106.963 206.909 101.009C214.828 94.7988 223.675 90.8788 234.507 91.5601C245.664 92.2612 255.302 87.2847 264.159 79.6127C272.453 72.4345 280.135 62.8568 287.807 53.2792L289.318 51.4031C297.513 41.1837 305.728 31.1617 314.793 24.1513C323.837 17.1408 333.672 13.1617 345.086 14.939C354.687 16.4349 364.404 17.043 374.116 16.7558C375.469 16.7261 376.782 16.6866 378.076 16.6373V15.6499Z" fill="#01C38E"/>
<g filter="url(#filter2_f_120_576)">
<path d="M378.076 67.5567C367.283 69.7981 355.503 75.515 338.767 89.1212C328.113 97.7707 317.755 99.1926 307.288 96.3983C296.733 93.5842 286.039 86.4652 274.862 77.9144C271.248 75.1497 267.585 72.227 263.872 69.2748C256.141 63.1135 248.172 56.7744 239.947 51.2155C227.743 42.9708 214.818 36.3652 200.915 34.5286C172.972 30.8358 155.406 48.6483 141.73 66.5891C139.133 70.0054 136.685 73.402 134.325 76.6802C130.434 82.0812 126.81 87.1267 123.177 91.2737C117.351 97.9287 111.891 101.809 105.937 101.148C99.0644 100.377 92.4784 103.428 86.1985 108.346C79.9186 113.263 73.8065 120.145 67.8624 127.303C66.1311 129.395 64.4097 131.495 62.6982 133.603C58.7518 138.561 54.6555 143.398 50.4149 148.108C44.688 154.289 39.198 159.038 33.8759 160.944C24.0216 164.459 17.5343 160.489 8.33169 154.861L6.16927 153.538C3.65138 152.008 0.936018 150.418 -2.07557 148.888V151.109C0.531182 152.472 2.91083 153.874 5.14237 155.237L7.4134 156.619C16.4679 162.178 23.7648 166.651 34.5374 162.81C40.3532 160.736 46.1296 155.661 51.8664 149.451C55.9543 145.027 60.1014 139.932 64.2682 134.808C65.9764 132.714 67.6748 130.621 69.3928 128.567C75.3173 121.419 81.3207 114.675 87.4229 109.906C93.525 105.127 99.5976 102.431 105.719 103.112C112.75 103.902 118.812 99.2617 124.678 92.5771C128.351 88.3708 132.083 83.1772 136.033 77.707C138.373 74.4487 140.792 71.0916 143.31 67.7937C156.936 49.9022 173.87 32.9488 200.649 36.4935C214.117 38.2708 226.746 44.6888 238.842 52.8545C247.007 58.3641 254.857 64.6242 262.559 70.7558C266.291 73.7279 269.984 76.6802 273.657 79.4843C284.835 88.045 295.805 95.3812 306.775 98.3138C317.834 101.266 328.853 99.7257 340.011 90.6615C356.343 77.3911 367.757 71.8025 378.076 69.5808V67.5567Z" fill="#6A6E79"/>
</g>
<path d="M378.076 68.0602C367.402 70.3016 355.711 75.9889 339.073 89.5062C328.31 98.2644 317.775 99.7158 307.16 96.882C296.496 94.0383 285.733 86.8601 274.556 78.2994C270.859 75.4476 267.189 72.561 263.546 69.64C255.825 63.4886 247.886 57.1694 239.671 51.6301C227.496 43.4052 214.64 36.8391 200.846 35.0124C173.199 31.3591 155.791 48.9543 142.125 66.8852C139.621 70.2021 137.162 73.553 134.749 76.9368C130.849 82.3576 127.196 87.4426 123.552 91.5995C117.716 98.2644 112.108 102.332 105.877 101.631C99.2026 100.891 92.745 103.853 86.5046 108.741C80.2642 113.618 74.1818 120.461 68.2376 127.619C66.512 129.707 64.7972 131.804 63.0932 133.909C59.1328 138.877 55.0233 143.724 50.7704 148.443C45.0434 154.634 39.4843 159.463 34.0437 161.408C23.9623 165.012 17.2677 160.914 8.10458 155.296C7.39365 154.861 6.66297 154.407 5.91254 153.963C3.30372 152.362 0.639369 150.854 -2.07557 149.441V150.556C0.629922 151.958 3.09844 153.41 5.39909 154.802L7.6405 156.184C16.7345 161.753 23.834 166.108 34.3696 162.336C40.0669 160.312 45.7642 155.325 51.5011 149.105C55.579 144.701 59.7064 139.626 63.8831 134.511C65.5816 132.417 67.2898 130.33 69.0078 128.251C74.9421 121.103 80.9652 114.329 87.1168 109.511C93.2683 104.702 99.4593 101.908 105.779 102.619C112.533 103.369 118.447 98.9259 124.302 92.2512C127.956 88.0647 131.678 82.9105 135.598 77.4503C137.948 74.1919 140.377 70.8249 142.915 67.4875C156.551 49.5862 173.643 32.4156 200.718 35.9899C214.285 37.787 226.993 44.2543 239.128 52.4496C247.304 57.9691 255.183 64.2489 262.885 70.3806C266.617 73.3526 270.3 76.2851 273.954 79.0893C285.141 87.65 296.042 94.9369 306.903 97.8398C317.814 100.753 328.676 99.232 339.695 90.2764C356.126 76.9171 367.639 71.289 378.076 69.0772V68.0602Z" fill="#6A6E79"/>
</g>
</g>
</g>
<defs>
<filter id="filter0_f_120_576" x="-8.07557" y="66.8574" width="392.151" height="130.148" filterUnits="userSpaceOnUse" color-interpolation-filters="sRGB">
<feFlood flood-opacity="0" result="BackgroundImageFix"/>
<feBlend mode="normal" in="SourceGraphic" in2="BackgroundImageFix" result="shape"/>
<feGaussianBlur stdDeviation="3" result="effect1_foregroundBlur_120_576"/>
</filter>
<filter id="filter1_f_120_576" x="-8.07557" y="7.02893" width="392.151" height="154.061" filterUnits="userSpaceOnUse" color-interpolation-filters="sRGB">
<feFlood flood-opacity="0" result="BackgroundImageFix"/>
<feBlend mode="normal" in="SourceGraphic" in2="BackgroundImageFix" result="shape"/>
<feGaussianBlur stdDeviation="3" result="effect1_foregroundBlur_120_576"/>
</filter>
<filter id="filter2_f_120_576" x="-8.07557" y="28.0386" width="392.151" height="142.208" filterUnits="userSpaceOnUse" color-interpolation-filters="sRGB">
<feFlood flood-opacity="0" result="BackgroundImageFix"/>
<feBlend mode="normal" in="SourceGraphic" in2="BackgroundImageFix" result="shape"/>
<feGaussianBlur stdDeviation="3" result="effect1_foregroundBlur_120_576"/>
</filter>
<linearGradient id="paint0_linear_120_576" x1="192" y1="0" x2="192" y2="326" gradientUnits="userSpaceOnUse">
<stop offset="0.7"/>
<stop offset="1" stop-opacity="0"/>
</linearGradient>
<linearGradient id="paint1_linear_120_576" x1="384" y1="163" x2="0" y2="163" gradientUnits="userSpaceOnUse">
<stop stop-opacity="0"/>
<stop offset="1"/>
</linearGradient>
<clipPath id="clip0_120_576">
<rect width="392" height="324.85" fill="white" transform="translate(-8 -0.000244141)"/>
</clipPath>
</defs>
</svg>
