<svg width="4024" height="1859" viewBox="0 0 4024 1859" fill="none" xmlns="http://www.w3.org/2000/svg">
<g style="mix-blend-mode:soft-light" opacity="0.7">
<path d="M118.111 27.9014H27.9092V118.103M118.111 27.9014V118.103M118.111 27.9014H208.313M118.111 118.103H27.9092M118.111 118.103V208.305M118.111 118.103H208.313M27.9092 118.103V208.305M118.111 208.305H27.9092M118.111 208.305V298.507M118.111 208.305H208.313M27.9092 208.305V298.507M118.111 298.507H27.9092M118.111 298.507V388.709M118.111 298.507H208.313M27.9092 298.507V388.709M118.111 388.709H27.9092M118.111 388.709V478.911M118.111 388.709H208.313M27.9092 388.709V478.911M118.111 478.911H27.9092M118.111 478.911V569.113M118.111 478.911H208.313M27.9092 478.911V569.113M118.111 569.113H27.9092M118.111 569.113V659.315M118.111 569.113H208.313M27.9092 569.113V659.315M118.111 659.315H27.9092M118.111 659.315V749.517M118.111 659.315H208.313M27.9092 659.315V749.517M118.111 749.517H27.9092M118.111 749.517V839.718M118.111 749.517H208.313M27.9092 749.517V839.718M118.111 839.718H27.9092M118.111 839.718V929.92M118.111 839.718H208.313M27.9092 839.718V929.92M118.111 929.92H27.9092M118.111 929.92V1020.12M118.111 929.92H208.313M27.9092 929.92V1020.12M118.111 1020.12H27.9092M118.111 1020.12V1110.32M118.111 1020.12H208.313M27.9092 1020.12V1110.32M118.111 1110.32H27.9092M118.111 1110.32V1200.53M118.111 1110.32H208.313M27.9092 1110.32V1200.53M118.111 1200.53H27.9092M118.111 1200.53V1290.73M118.111 1200.53H208.313M27.9092 1200.53V1290.73M118.111 1290.73H27.9092M118.111 1290.73V1380.93M118.111 1290.73H208.313M27.9092 1290.73V1380.93M118.111 1380.93H27.9092M118.111 1380.93V1471.13M118.111 1380.93H208.313M27.9092 1380.93V1471.13M118.111 1471.13H27.9092M118.111 1471.13V1561.33M118.111 1471.13H208.313M27.9092 1471.13V1561.33M118.111 1561.33H27.9092M118.111 1561.33V1651.54M118.111 1561.33H208.313M27.9092 1561.33V1651.54M118.111 1651.54H27.9092M118.111 1651.54V1741.74M118.111 1651.54H208.313M27.9092 1651.54V1741.74M118.111 1741.74H27.9092M118.111 1741.74V1831.94M118.111 1741.74H208.313M27.9092 1741.74V1831.94H118.111M118.111 1831.94H208.313M208.313 27.9014V118.103M208.313 27.9014H298.515M208.313 118.103V208.305M208.313 118.103H298.515M208.313 208.305V298.507M208.313 208.305H298.515M208.313 298.507V388.709M208.313 298.507H298.515M208.313 388.709V478.911M208.313 388.709H298.515M208.313 478.911V569.113M208.313 478.911H298.515M208.313 569.113V659.315M208.313 569.113H298.515M208.313 659.315V749.517M208.313 659.315H298.515M208.313 749.517V839.718M208.313 749.517H298.515M208.313 839.718V929.92M208.313 839.718H298.515M208.313 929.92V1020.12M208.313 929.92H298.515M208.313 1020.12V1110.32M208.313 1020.12H298.515M208.313 1110.32V1200.53M208.313 1110.32H298.515M208.313 1200.53V1290.73M208.313 1200.53H298.515M208.313 1290.73V1380.93M208.313 1290.73H298.515M208.313 1380.93V1471.13M208.313 1380.93H298.515M208.313 1471.13V1561.33M208.313 1471.13H298.515M208.313 1561.33V1651.54M208.313 1561.33H298.515M208.313 1651.54V1741.74M208.313 1651.54H298.515M208.313 1741.74V1831.94M208.313 1741.74H298.515M208.313 1831.94H298.515M298.515 27.9014V118.103M298.515 27.9014H388.717M298.515 118.103V208.305M298.515 118.103H388.717M298.515 208.305V298.507M298.515 208.305H388.717M298.515 298.507V388.709M298.515 298.507H388.717M298.515 388.709V478.911M298.515 388.709H388.717M298.515 478.911V569.113M298.515 478.911H388.717M298.515 569.113V659.315M298.515 569.113H388.717M298.515 659.315V749.517M298.515 659.315H388.717M298.515 749.517V839.718M298.515 749.517H388.717M298.515 839.718V929.92M298.515 839.718H388.717M298.515 929.92V1020.12M298.515 929.92H388.717M298.515 1020.12V1110.32M298.515 1020.12H388.717M298.515 1110.32V1200.53M298.515 1110.32H388.717M298.515 1200.53V1290.73M298.515 1200.53H388.717M298.515 1290.73V1380.93M298.515 1290.73H388.717M298.515 1380.93V1471.13M298.515 1380.93H388.717M298.515 1471.13V1561.33M298.515 1471.13H388.717M298.515 1561.33V1651.54M298.515 1561.33H388.717M298.515 1651.54V1741.74M298.515 1651.54H388.717M298.515 1741.74V1831.94M298.515 1741.74H388.717M298.515 1831.94H388.717M388.717 27.9014V118.103M388.717 27.9014H478.919M388.717 118.103V208.305M388.717 118.103H478.919M388.717 208.305V298.507M388.717 208.305H478.919M388.717 298.507V388.709M388.717 298.507H478.919M388.717 388.709V478.911M388.717 388.709H478.919M388.717 478.911V569.113M388.717 478.911H478.919M388.717 569.113V659.315M388.717 569.113H478.919M388.717 659.315V749.517M388.717 659.315H478.919M388.717 749.517V839.718M388.717 749.517H478.919M388.717 839.718V929.92M388.717 839.718H478.919M388.717 929.92V1020.12M388.717 929.92H478.919M388.717 1020.12V1110.32M388.717 1020.12H478.919M388.717 1110.32V1200.53M388.717 1110.32H478.919M388.717 1200.53V1290.73M388.717 1200.53H478.919M388.717 1290.73V1380.93M388.717 1290.73H478.919M388.717 1380.93V1471.13M388.717 1380.93H478.919M388.717 1471.13V1561.33M388.717 1471.13H478.919M388.717 1561.33V1651.54M388.717 1561.33H478.919M388.717 1651.54V1741.74M388.717 1651.54H478.919M388.717 1741.74V1831.94M388.717 1741.74H478.919M388.717 1831.94H478.919M478.919 27.9014V118.103M478.919 27.9014H569.121M478.919 118.103V208.305M478.919 118.103H569.121M478.919 208.305V298.507M478.919 208.305H569.121M478.919 298.507V388.709M478.919 298.507H569.121M478.919 388.709V478.911M478.919 388.709H569.121M478.919 478.911V569.113M478.919 478.911H569.121M478.919 569.113V659.315M478.919 569.113H569.121M478.919 659.315V749.517M478.919 659.315H569.121M478.919 749.517V839.718M478.919 749.517H569.121M478.919 839.718V929.92M478.919 839.718H569.121M478.919 929.92V1020.12M478.919 929.92H569.121M478.919 1020.12V1110.32M478.919 1020.12H569.121M478.919 1110.32V1200.53M478.919 1110.32H569.121M478.919 1200.53V1290.73M478.919 1200.53H569.121M478.919 1290.73V1380.93M478.919 1290.73H569.121M478.919 1380.93V1471.13M478.919 1380.93H569.121M478.919 1471.13V1561.33M478.919 1471.13H569.121M478.919 1561.33V1651.54M478.919 1561.33H569.121M478.919 1651.54V1741.74M478.919 1651.54H569.121M478.919 1741.74V1831.94M478.919 1741.74H569.121M478.919 1831.94H569.121M569.121 27.9014V118.103M569.121 27.9014H659.323M569.121 118.103V208.305M569.121 118.103H659.323M569.121 208.305V298.507M569.121 208.305H659.323M569.121 298.507V388.709M569.121 298.507H659.323M569.121 388.709V478.911M569.121 388.709H659.323M569.121 478.911V569.113M569.121 478.911H659.323M569.121 569.113V659.315M569.121 569.113H659.323M569.121 659.315V749.517M569.121 659.315H659.323M569.121 749.517V839.718M569.121 749.517H659.323M569.121 839.718V929.92M569.121 839.718H659.323M569.121 929.92V1020.12M569.121 929.92H659.323M569.121 1020.12V1110.32M569.121 1020.12H659.323M569.121 1110.32V1200.53M569.121 1110.32H659.323M569.121 1200.53V1290.73M569.121 1200.53H659.323M569.121 1290.73V1380.93M569.121 1290.73H659.323M569.121 1380.93V1471.13M569.121 1380.93H659.323M569.121 1471.13V1561.33M569.121 1471.13H659.323M569.121 1561.33V1651.54M569.121 1561.33H659.323M569.121 1651.54V1741.74M569.121 1651.54H659.323M569.121 1741.74V1831.94M569.121 1741.74H659.323M569.121 1831.94H659.323M659.323 27.9014V118.103M659.323 27.9014H749.525M659.323 118.103V208.305M659.323 118.103H749.525M659.323 208.305V298.507M659.323 208.305H749.525M659.323 298.507V388.709M659.323 298.507H749.525M659.323 388.709V478.911M659.323 388.709H749.525M659.323 478.911V569.113M659.323 478.911H749.525M659.323 569.113V659.315M659.323 569.113H749.525M659.323 659.315V749.517M659.323 659.315H749.525M659.323 749.517V839.718M659.323 749.517H749.525M659.323 839.718V929.92M659.323 839.718H749.525M659.323 929.92V1020.12M659.323 929.92H749.525M659.323 1020.12V1110.32M659.323 1020.12H749.525M659.323 1110.32V1200.53M659.323 1110.32H749.525M659.323 1200.53V1290.73M659.323 1200.53H749.525M659.323 1290.73V1380.93M659.323 1290.73H749.525M659.323 1380.93V1471.13M659.323 1380.93H749.525M659.323 1471.13V1561.33M659.323 1471.13H749.525M659.323 1561.33V1651.54M659.323 1561.33H749.525M659.323 1651.54V1741.74M659.323 1651.54H749.525M659.323 1741.74V1831.94M659.323 1741.74H749.525M659.323 1831.94H749.525M749.525 27.9014V118.103M749.525 27.9014H839.726M749.525 118.103V208.305M749.525 118.103H839.726M749.525 208.305V298.507M749.525 208.305H839.726M749.525 298.507V388.709M749.525 298.507H839.726M749.525 388.709V478.911M749.525 388.709H839.726M749.525 478.911V569.113M749.525 478.911H839.726M749.525 569.113V659.315M749.525 569.113H839.726M749.525 659.315V749.517M749.525 659.315H839.726M749.525 749.517V839.718M749.525 749.517H839.726M749.525 839.718V929.92M749.525 839.718H839.726M749.525 929.92V1020.12M749.525 929.92H839.726M749.525 1020.12V1110.32M749.525 1020.12H839.726M749.525 1110.32V1200.53M749.525 1110.32H839.726M749.525 1200.53V1290.73M749.525 1200.53H839.726M749.525 1290.73V1380.93M749.525 1290.73H839.726M749.525 1380.93V1471.13M749.525 1380.93H839.726M749.525 1471.13V1561.33M749.525 1471.13H839.726M749.525 1561.33V1651.54M749.525 1561.33H839.726M749.525 1651.54V1741.74M749.525 1651.54H839.726M749.525 1741.74V1831.94M749.525 1741.74H839.726M749.525 1831.94H839.726M839.726 27.9014V118.103M839.726 27.9014H929.928M839.726 118.103V208.305M839.726 118.103H929.928M839.726 208.305V298.507M839.726 208.305H929.928M839.726 298.507V388.709M839.726 298.507H929.928M839.726 388.709V478.911M839.726 388.709H929.928M839.726 478.911V569.113M839.726 478.911H929.928M839.726 569.113V659.315M839.726 569.113H929.928M839.726 659.315V749.517M839.726 659.315H929.928M839.726 749.517V839.718M839.726 749.517H929.928M839.726 839.718V929.92M839.726 839.718H929.928M839.726 929.92V1020.12M839.726 929.92H929.928M839.726 1020.12V1110.32M839.726 1020.12H929.928M839.726 1110.32V1200.53M839.726 1110.32H929.928M839.726 1200.53V1290.73M839.726 1200.53H929.928M839.726 1290.73V1380.93M839.726 1290.73H929.928M839.726 1380.93V1471.13M839.726 1380.93H929.928M839.726 1471.13V1561.33M839.726 1471.13H929.928M839.726 1561.33V1651.54M839.726 1561.33H929.928M839.726 1651.54V1741.74M839.726 1651.54H929.928M839.726 1741.74V1831.94M839.726 1741.74H929.928M839.726 1831.94H929.928M929.928 27.9014V118.103M929.928 27.9014H1020.13M929.928 118.103V208.305M929.928 118.103H1020.13M929.928 208.305V298.507M929.928 208.305H1020.13M929.928 298.507V388.709M929.928 298.507H1020.13M929.928 388.709V478.911M929.928 388.709H1020.13M929.928 478.911V569.113M929.928 478.911H1020.13M929.928 569.113V659.315M929.928 569.113H1020.13M929.928 659.315V749.517M929.928 659.315H1020.13M929.928 749.517V839.718M929.928 749.517H1020.13M929.928 839.718V929.92M929.928 839.718H1020.13M929.928 929.92V1020.12M929.928 929.92H1020.13M929.928 1020.12V1110.32M929.928 1020.12H1020.13M929.928 1110.32V1200.53M929.928 1110.32H1020.13M929.928 1200.53V1290.73M929.928 1200.53H1020.13M929.928 1290.73V1380.93M929.928 1290.73H1020.13M929.928 1380.93V1471.13M929.928 1380.93H1020.13M929.928 1471.13V1561.33M929.928 1471.13H1020.13M929.928 1561.33V1651.54M929.928 1561.33H1020.13M929.928 1651.54V1741.74M929.928 1651.54H1020.13M929.928 1741.74V1831.94M929.928 1741.74H1020.13M929.928 1831.94H1020.13M1020.13 27.9014V118.103M1020.13 27.9014H1110.33M1020.13 118.103V208.305M1020.13 118.103H1110.33M1020.13 208.305V298.507M1020.13 208.305H1110.33M1020.13 298.507V388.709M1020.13 298.507H1110.33M1020.13 388.709V478.911M1020.13 388.709H1110.33M1020.13 478.911V569.113M1020.13 478.911H1110.33M1020.13 569.113V659.315M1020.13 569.113H1110.33M1020.13 659.315V749.517M1020.13 659.315H1110.33M1020.13 749.517V839.718M1020.13 749.517H1110.33M1020.13 839.718V929.92M1020.13 839.718H1110.33M1020.13 929.92V1020.12M1020.13 929.92H1110.33M1020.13 1020.12V1110.32M1020.13 1020.12H1110.33M1020.13 1110.32V1200.53M1020.13 1110.32H1110.33M1020.13 1200.53V1290.73M1020.13 1200.53H1110.33M1020.13 1290.73V1380.93M1020.13 1290.73H1110.33M1020.13 1380.93V1471.13M1020.13 1380.93H1110.33M1020.13 1471.13V1561.33M1020.13 1471.13H1110.33M1020.13 1561.33V1651.54M1020.13 1561.33H1110.33M1020.13 1651.54V1741.74M1020.13 1651.54H1110.33M1020.13 1741.74V1831.94M1020.13 1741.74H1110.33M1020.13 1831.94H1110.33M1110.33 27.9014V118.103M1110.33 27.9014H1200.53M1110.33 118.103V208.305M1110.33 118.103H1200.53M1110.33 208.305V298.507M1110.33 208.305H1200.53M1110.33 298.507V388.709M1110.33 298.507H1200.53M1110.33 388.709V478.911M1110.33 388.709H1200.53M1110.33 478.911V569.113M1110.33 478.911H1200.53M1110.33 569.113V659.315M1110.33 569.113H1200.53M1110.33 659.315V749.517M1110.33 659.315H1200.53M1110.33 749.517V839.718M1110.33 749.517H1200.53M1110.33 839.718V929.92M1110.33 839.718H1200.53M1110.33 929.92V1020.12M1110.33 929.92H1200.53M1110.33 1020.12V1110.32M1110.33 1020.12H1200.53M1110.33 1110.32V1200.53M1110.33 1110.32H1200.53M1110.33 1200.53V1290.73M1110.33 1200.53H1200.53M1110.33 1290.73V1380.93M1110.33 1290.73H1200.53M1110.33 1380.93V1471.13M1110.33 1380.93H1200.53M1110.33 1471.13V1561.33M1110.33 1471.13H1200.53M1110.33 1561.33V1651.54M1110.33 1561.33H1200.53M1110.33 1651.54V1741.74M1110.33 1651.54H1200.53M1110.33 1741.74V1831.94M1110.33 1741.74H1200.53M1110.33 1831.94H1200.53M1200.53 27.9014V118.103M1200.53 27.9014H1290.74M1200.53 118.103V208.305M1200.53 118.103H1290.74M1200.53 208.305V298.507M1200.53 208.305H1290.74M1200.53 298.507V388.709M1200.53 298.507H1290.74M1200.53 388.709V478.911M1200.53 388.709H1290.74M1200.53 478.911V569.113M1200.53 478.911H1290.74M1200.53 569.113V659.315M1200.53 569.113H1290.74M1200.53 659.315V749.517M1200.53 659.315H1290.74M1200.53 749.517V839.718M1200.53 749.517H1290.74M1200.53 839.718V929.92M1200.53 839.718H1290.74M1200.53 929.92V1020.12M1200.53 929.92H1290.74M1200.53 1020.12V1110.32M1200.53 1020.12H1290.74M1200.53 1110.32V1200.53M1200.53 1110.32H1290.74M1200.53 1200.53V1290.73M1200.53 1200.53H1290.74M1200.53 1290.73V1380.93M1200.53 1290.73H1290.74M1200.53 1380.93V1471.13M1200.53 1380.93H1290.74M1200.53 1471.13V1561.33M1200.53 1471.13H1290.74M1200.53 1561.33V1651.54M1200.53 1561.33H1290.74M1200.53 1651.54V1741.74M1200.53 1651.54H1290.74M1200.53 1741.74V1831.94M1200.53 1741.74H1290.74M1200.53 1831.94H1290.74M1290.74 27.9014V118.103M1290.74 27.9014H1380.94M1290.74 118.103V208.305M1290.74 118.103H1380.94M1290.74 208.305V298.507M1290.74 208.305H1380.94M1290.74 298.507V388.709M1290.74 298.507H1380.94M1290.74 388.709V478.911M1290.74 388.709H1380.94M1290.74 478.911V569.113M1290.74 478.911H1380.94M1290.74 569.113V659.315M1290.74 569.113H1380.94M1290.74 659.315V749.517M1290.74 659.315H1380.94M1290.74 749.517V839.718M1290.74 749.517H1380.94M1290.74 839.718V929.92M1290.74 839.718H1380.94M1290.74 929.92V1020.12M1290.74 929.92H1380.94M1290.74 1020.12V1110.32M1290.74 1020.12H1380.94M1290.74 1110.32V1200.53M1290.74 1110.32H1380.94M1290.74 1200.53V1290.73M1290.74 1200.53H1380.94M1290.74 1290.73V1380.93M1290.74 1290.73H1380.94M1290.74 1380.93V1471.13M1290.74 1380.93H1380.94M1290.74 1471.13V1561.33M1290.74 1471.13H1380.94M1290.74 1561.33V1651.54M1290.74 1561.33H1380.94M1290.74 1651.54V1741.74M1290.74 1651.54H1380.94M1290.74 1741.74V1831.94M1290.74 1741.74H1380.94M1290.74 1831.94H1380.94M1380.94 27.9014V118.103M1380.94 27.9014H1471.14M1380.94 118.103V208.305M1380.94 118.103H1471.14M1380.94 208.305V298.507M1380.94 208.305H1471.14M1380.94 298.507V388.709M1380.94 298.507H1471.14M1380.94 388.709V478.911M1380.94 388.709H1471.14M1380.94 478.911V569.113M1380.94 478.911H1471.14M1380.94 569.113V659.315M1380.94 569.113H1471.14M1380.94 659.315V749.517M1380.94 659.315H1471.14M1380.94 749.517V839.718M1380.94 749.517H1471.14M1380.94 839.718V929.92M1380.94 839.718H1471.14M1380.94 929.92V1020.12M1380.94 929.92H1471.14M1380.94 1020.12V1110.32M1380.94 1020.12H1471.14M1380.94 1110.32V1200.53M1380.94 1110.32H1471.14M1380.94 1200.53V1290.73M1380.94 1200.53H1471.14M1380.94 1290.73V1380.93M1380.94 1290.73H1471.14M1380.94 1380.93V1471.13M1380.94 1380.93H1471.14M1380.94 1471.13V1561.33M1380.94 1471.13H1471.14M1380.94 1561.33V1651.54M1380.94 1561.33H1471.14M1380.94 1651.54V1741.74M1380.94 1651.54H1471.14M1380.94 1741.74V1831.94M1380.94 1741.74H1471.14M1380.94 1831.94H1471.14M1471.14 27.9014V118.103M1471.14 27.9014H1561.34M1471.14 118.103V208.305M1471.14 118.103H1561.34M1471.14 208.305V298.507M1471.14 208.305H1561.34M1471.14 298.507V388.709M1471.14 298.507H1561.34M1471.14 388.709V478.911M1471.14 388.709H1561.34M1471.14 478.911V569.113M1471.14 478.911H1561.34M1471.14 569.113V659.315M1471.14 569.113H1561.34M1471.14 659.315V749.517M1471.14 659.315H1561.34M1471.14 749.517V839.718M1471.14 749.517H1561.34M1471.14 839.718V929.92M1471.14 839.718H1561.34M1471.14 929.92V1020.12M1471.14 929.92H1561.34M1471.14 1020.12V1110.32M1471.14 1020.12H1561.34M1471.14 1110.32V1200.53M1471.14 1110.32H1561.34M1471.14 1200.53V1290.73M1471.14 1200.53H1561.34M1471.14 1290.73V1380.93M1471.14 1290.73H1561.34M1471.14 1380.93V1471.13M1471.14 1380.93H1561.34M1471.14 1471.13V1561.33M1471.14 1471.13H1561.34M1471.14 1561.33V1651.54M1471.14 1561.33H1561.34M1471.14 1651.54V1741.74M1471.14 1651.54H1561.34M1471.14 1741.74V1831.94M1471.14 1741.74H1561.34M1471.14 1831.94H1561.34M1561.34 27.9014V118.103M1561.34 27.9014H1651.54M1561.34 118.103V208.305M1561.34 118.103H1651.54M1561.34 208.305V298.507M1561.34 208.305H1651.54M1561.34 298.507V388.709M1561.34 298.507H1651.54M1561.34 388.709V478.911M1561.34 388.709H1651.54M1561.34 478.911V569.113M1561.34 478.911H1651.54M1561.34 569.113V659.315M1561.34 569.113H1651.54M1561.34 659.315V749.517M1561.34 659.315H1651.54M1561.34 749.517V839.718M1561.34 749.517H1651.54M1561.34 839.718V929.92M1561.34 839.718H1651.54M1561.34 929.92V1020.12M1561.34 929.92H1651.54M1561.34 1020.12V1110.32M1561.34 1020.12H1651.54M1561.34 1110.32V1200.53M1561.34 1110.32H1651.54M1561.34 1200.53V1290.73M1561.34 1200.53H1651.54M1561.34 1290.73V1380.93M1561.34 1290.73H1651.54M1561.34 1380.93V1471.13M1561.34 1380.93H1651.54M1561.34 1471.13V1561.33M1561.34 1471.13H1651.54M1561.34 1561.33V1651.54M1561.34 1561.33H1651.54M1561.34 1651.54V1741.74M1561.34 1651.54H1651.54M1561.34 1741.74V1831.94M1561.34 1741.74H1651.54M1561.34 1831.94H1651.54M1651.54 27.9014V118.103M1651.54 27.9014H1741.75M1651.54 118.103V208.305M1651.54 118.103H1741.75M1651.54 208.305V298.507M1651.54 208.305H1741.75M1651.54 298.507V388.709M1651.54 298.507H1741.75M1651.54 388.709V478.911M1651.54 388.709H1741.75M1651.54 478.911V569.113M1651.54 478.911H1741.75M1651.54 569.113V659.315M1651.54 569.113H1741.75M1651.54 659.315V749.517M1651.54 659.315H1741.75M1651.54 749.517V839.718M1651.54 749.517H1741.75M1651.54 839.718V929.92M1651.54 839.718H1741.75M1651.54 929.92V1020.12M1651.54 929.92H1741.75M1651.54 1020.12V1110.32M1651.54 1020.12H1741.75M1651.54 1110.32V1200.53M1651.54 1110.32H1741.75M1651.54 1200.53V1290.73M1651.54 1200.53H1741.75M1651.54 1290.73V1380.93M1651.54 1290.73H1741.75M1651.54 1380.93V1471.13M1651.54 1380.93H1741.75M1651.54 1471.13V1561.33M1651.54 1471.13H1741.75M1651.54 1561.33V1651.54M1651.54 1561.33H1741.75M1651.54 1651.54V1741.74M1651.54 1651.54H1741.75M1651.54 1741.74V1831.94M1651.54 1741.74H1741.75M1651.54 1831.94H1741.75M1741.75 27.9014V118.103M1741.75 27.9014H1831.95M1741.75 118.103V208.305M1741.75 118.103H1831.95M1741.75 208.305V298.507M1741.75 208.305H1831.95M1741.75 298.507V388.709M1741.75 298.507H1831.95M1741.75 388.709V478.911M1741.75 388.709H1831.95M1741.75 478.911V569.113M1741.75 478.911H1831.95M1741.75 569.113V659.315M1741.75 569.113H1831.95M1741.75 659.315V749.517M1741.75 659.315H1831.95M1741.75 749.517V839.718M1741.75 749.517H1831.95M1741.75 839.718V929.92M1741.75 839.718H1831.95M1741.75 929.92V1020.12M1741.75 929.92H1831.95M1741.75 1020.12V1110.32M1741.75 1020.12H1831.95M1741.75 1110.32V1200.53M1741.75 1110.32H1831.95M1741.75 1200.53V1290.73M1741.75 1200.53H1831.95M1741.75 1290.73V1380.93M1741.75 1290.73H1831.95M1741.75 1380.93V1471.13M1741.75 1380.93H1831.95M1741.75 1471.13V1561.33M1741.75 1471.13H1831.95M1741.75 1561.33V1651.54M1741.75 1561.33H1831.95M1741.75 1651.54V1741.74M1741.75 1651.54H1831.95M1741.75 1741.74V1831.94M1741.75 1741.74H1831.95M1741.75 1831.94H1831.95M1831.95 27.9014V118.103M1831.95 27.9014H1922.15M1831.95 118.103V208.305M1831.95 118.103H1922.15M1831.95 208.305V298.507M1831.95 208.305H1922.15M1831.95 298.507V388.709M1831.95 298.507H1922.15M1831.95 388.709V478.911M1831.95 388.709H1922.15M1831.95 478.911V569.113M1831.95 478.911H1922.15M1831.95 569.113V659.315M1831.95 569.113H1922.15M1831.95 659.315V749.517M1831.95 659.315H1922.15M1831.95 749.517V839.718M1831.95 749.517H1922.15M1831.95 839.718V929.92M1831.95 839.718H1922.15M1831.95 929.92V1020.12M1831.95 929.92H1922.15M1831.95 1020.12V1110.32M1831.95 1020.12H1922.15M1831.95 1110.32V1200.53M1831.95 1110.32H1922.15M1831.95 1200.53V1290.73M1831.95 1200.53H1922.15M1831.95 1290.73V1380.93M1831.95 1290.73H1922.15M1831.95 1380.93V1471.13M1831.95 1380.93H1922.15M1831.95 1471.13V1561.33M1831.95 1471.13H1922.15M1831.95 1561.33V1651.54M1831.95 1561.33H1922.15M1831.95 1651.54V1741.74M1831.95 1651.54H1922.15M1831.95 1741.74V1831.94M1831.95 1741.74H1922.15M1831.95 1831.94H1922.15M1922.15 27.9014V118.103M1922.15 27.9014H2012.35M1922.15 118.103V208.305M1922.15 118.103H2012.35M1922.15 208.305V298.507M1922.15 208.305H2012.35M1922.15 298.507V388.709M1922.15 298.507H2012.35M1922.15 388.709V478.911M1922.15 388.709H2012.35M1922.15 478.911V569.113M1922.15 478.911H2012.35M1922.15 569.113V659.315M1922.15 569.113H2012.35M1922.15 659.315V749.517M1922.15 659.315H2012.35M1922.15 749.517V839.718M1922.15 749.517H2012.35M1922.15 839.718V929.92M1922.15 839.718H2012.35M1922.15 929.92V1020.12M1922.15 929.92H2012.35M1922.15 1020.12V1110.32M1922.15 1020.12H2012.35M1922.15 1110.32V1200.53M1922.15 1110.32H2012.35M1922.15 1200.53V1290.73M1922.15 1200.53H2012.35M1922.15 1290.73V1380.93M1922.15 1290.73H2012.35M1922.15 1380.93V1471.13M1922.15 1380.93H2012.35M1922.15 1471.13V1561.33M1922.15 1471.13H2012.35M1922.15 1561.33V1651.54M1922.15 1561.33H2012.35M1922.15 1651.54V1741.74M1922.15 1651.54H2012.35M1922.15 1741.74V1831.94M1922.15 1741.74H2012.35M1922.15 1831.94H2012.35M2012.35 27.9014V118.103M2012.35 27.9014H2102.55M2012.35 118.103V208.305M2012.35 118.103H2102.55M2012.35 208.305V298.507M2012.35 208.305H2102.55M2012.35 298.507V388.709M2012.35 298.507H2102.55M2012.35 388.709V478.911M2012.35 388.709H2102.55M2012.35 478.911V569.113M2012.35 478.911H2102.55M2012.35 569.113V659.315M2012.35 569.113H2102.55M2012.35 659.315V749.517M2012.35 659.315H2102.55M2012.35 749.517V839.718M2012.35 749.517H2102.55M2012.35 839.718V929.92M2012.35 839.718H2102.55M2012.35 929.92V1020.12M2012.35 929.92H2102.55M2012.35 1020.12V1110.32M2012.35 1020.12H2102.55M2012.35 1110.32V1200.53M2012.35 1110.32H2102.55M2012.35 1200.53V1290.73M2012.35 1200.53H2102.55M2012.35 1290.73V1380.93M2012.35 1290.73H2102.55M2012.35 1380.93V1471.13M2012.35 1380.93H2102.55M2012.35 1471.13V1561.33M2012.35 1471.13H2102.55M2012.35 1561.33V1651.54M2012.35 1561.33H2102.55M2012.35 1651.54V1741.74M2012.35 1651.54H2102.55M2012.35 1741.74V1831.94M2012.35 1741.74H2102.55M2012.35 1831.94H2102.55M2102.55 27.9014V118.103M2102.55 27.9014H2192.76M2102.55 118.103V208.305M2102.55 118.103H2192.76M2102.55 208.305V298.507M2102.55 208.305H2192.76M2102.55 298.507V388.709M2102.55 298.507H2192.76M2102.55 388.709V478.911M2102.55 388.709H2192.76M2102.55 478.911V569.113M2102.55 478.911H2192.76M2102.55 569.113V659.315M2102.55 569.113H2192.76M2102.55 659.315V749.517M2102.55 659.315H2192.76M2102.55 749.517V839.718M2102.55 749.517H2192.76M2102.55 839.718V929.92M2102.55 839.718H2192.76M2102.55 929.92V1020.12M2102.55 929.92H2192.76M2102.55 1020.12V1110.32M2102.55 1020.12H2192.76M2102.55 1110.32V1200.53M2102.55 1110.32H2192.76M2102.55 1200.53V1290.73M2102.55 1200.53H2192.76M2102.55 1290.73V1380.93M2102.55 1290.73H2192.76M2102.55 1380.93V1471.13M2102.55 1380.93H2192.76M2102.55 1471.13V1561.33M2102.55 1471.13H2192.76M2102.55 1561.33V1651.54M2102.55 1561.33H2192.76M2102.55 1651.54V1741.74M2102.55 1651.54H2192.76M2102.55 1741.74V1831.94M2102.55 1741.74H2192.76M2102.55 1831.94H2192.76M2192.76 27.9014V118.103M2192.76 27.9014H2282.96M2192.76 118.103V208.305M2192.76 118.103H2282.96M2192.76 208.305V298.507M2192.76 208.305H2282.96M2192.76 298.507V388.709M2192.76 298.507H2282.96M2192.76 388.709V478.911M2192.76 388.709H2282.96M2192.76 478.911V569.113M2192.76 478.911H2282.96M2192.76 569.113V659.315M2192.76 569.113H2282.96M2192.76 659.315V749.517M2192.76 659.315H2282.96M2192.76 749.517V839.718M2192.76 749.517H2282.96M2192.76 839.718V929.92M2192.76 839.718H2282.96M2192.76 929.92V1020.12M2192.76 929.92H2282.96M2192.76 1020.12V1110.32M2192.76 1020.12H2282.96M2192.76 1110.32V1200.53M2192.76 1110.32H2282.96M2192.76 1200.53V1290.73M2192.76 1200.53H2282.96M2192.76 1290.73V1380.93M2192.76 1290.73H2282.96M2192.76 1380.93V1471.13M2192.76 1380.93H2282.96M2192.76 1471.13V1561.33M2192.76 1471.13H2282.96M2192.76 1561.33V1651.54M2192.76 1561.33H2282.96M2192.76 1651.54V1741.74M2192.76 1651.54H2282.96M2192.76 1741.74V1831.94M2192.76 1741.74H2282.96M2192.76 1831.94H2282.96M2282.96 27.9014V118.103M2282.96 27.9014H2373.16M2282.96 118.103V208.305M2282.96 118.103H2373.16M2282.96 208.305V298.507M2282.96 208.305H2373.16M2282.96 298.507V388.709M2282.96 298.507H2373.16M2282.96 388.709V478.911M2282.96 388.709H2373.16M2282.96 478.911V569.113M2282.96 478.911H2373.16M2282.96 569.113V659.315M2282.96 569.113H2373.16M2282.96 659.315V749.517M2282.96 659.315H2373.16M2282.96 749.517V839.718M2282.96 749.517H2373.16M2282.96 839.718V929.92M2282.96 839.718H2373.16M2282.96 929.92V1020.12M2282.96 929.92H2373.16M2282.96 1020.12V1110.32M2282.96 1020.12H2373.16M2282.96 1110.32V1200.53M2282.96 1110.32H2373.16M2282.96 1200.53V1290.73M2282.96 1200.53H2373.16M2282.96 1290.73V1380.93M2282.96 1290.73H2373.16M2282.96 1380.93V1471.13M2282.96 1380.93H2373.16M2282.96 1471.13V1561.33M2282.96 1471.13H2373.16M2282.96 1561.33V1651.54M2282.96 1561.33H2373.16M2282.96 1651.54V1741.74M2282.96 1651.54H2373.16M2282.96 1741.74V1831.94M2282.96 1741.74H2373.16M2282.96 1831.94H2373.16M2373.16 27.9014V118.103M2373.16 27.9014H2463.36M2373.16 118.103V208.305M2373.16 118.103H2463.36M2373.16 208.305V298.507M2373.16 208.305H2463.36M2373.16 298.507V388.709M2373.16 298.507H2463.36M2373.16 388.709V478.911M2373.16 388.709H2463.36M2373.16 478.911V569.113M2373.16 478.911H2463.36M2373.16 569.113V659.315M2373.16 569.113H2463.36M2373.16 659.315V749.517M2373.16 659.315H2463.36M2373.16 749.517V839.718M2373.16 749.517H2463.36M2373.16 839.718V929.92M2373.16 839.718H2463.36M2373.16 929.92V1020.12M2373.16 929.92H2463.36M2373.16 1020.12V1110.32M2373.16 1020.12H2463.36M2373.16 1110.32V1200.53M2373.16 1110.32H2463.36M2373.16 1200.53V1290.73M2373.16 1200.53H2463.36M2373.16 1290.73V1380.93M2373.16 1290.73H2463.36M2373.16 1380.93V1471.13M2373.16 1380.93H2463.36M2373.16 1471.13V1561.33M2373.16 1471.13H2463.36M2373.16 1561.33V1651.54M2373.16 1561.33H2463.36M2373.16 1651.54V1741.74M2373.16 1651.54H2463.36M2373.16 1741.74V1831.94M2373.16 1741.74H2463.36M2373.16 1831.94H2463.36M2463.36 27.9014V118.103M2463.36 27.9014H2553.56M2463.36 118.103V208.305M2463.36 118.103H2553.56M2463.36 208.305V298.507M2463.36 208.305H2553.56M2463.36 298.507V388.709M2463.36 298.507H2553.56M2463.36 388.709V478.911M2463.36 388.709H2553.56M2463.36 478.911V569.113M2463.36 478.911H2553.56M2463.36 569.113V659.315M2463.36 569.113H2553.56M2463.36 659.315V749.517M2463.36 659.315H2553.56M2463.36 749.517V839.718M2463.36 749.517H2553.56M2463.36 839.718V929.92M2463.36 839.718H2553.56M2463.36 929.92V1020.12M2463.36 929.92H2553.56M2463.36 1020.12V1110.32M2463.36 1020.12H2553.56M2463.36 1110.32V1200.53M2463.36 1110.32H2553.56M2463.36 1200.53V1290.73M2463.36 1200.53H2553.56M2463.36 1290.73V1380.93M2463.36 1290.73H2553.56M2463.36 1380.93V1471.13M2463.36 1380.93H2553.56M2463.36 1471.13V1561.33M2463.36 1471.13H2553.56M2463.36 1561.33V1651.54M2463.36 1561.33H2553.56M2463.36 1651.54V1741.74M2463.36 1651.54H2553.56M2463.36 1741.74V1831.94M2463.36 1741.74H2553.56M2463.36 1831.94H2553.56M2553.56 27.9014V118.103M2553.56 27.9014H2643.76M2553.56 118.103V208.305M2553.56 118.103H2643.76M2553.56 208.305V298.507M2553.56 208.305H2643.76M2553.56 298.507V388.709M2553.56 298.507H2643.76M2553.56 388.709V478.911M2553.56 388.709H2643.76M2553.56 478.911V569.113M2553.56 478.911H2643.76M2553.56 569.113V659.315M2553.56 569.113H2643.76M2553.56 659.315V749.517M2553.56 659.315H2643.76M2553.56 749.517V839.718M2553.56 749.517H2643.76M2553.56 839.718V929.92M2553.56 839.718H2643.76M2553.56 929.92V1020.12M2553.56 929.92H2643.76M2553.56 1020.12V1110.32M2553.56 1020.12H2643.76M2553.56 1110.32V1200.53M2553.56 1110.32H2643.76M2553.56 1200.53V1290.73M2553.56 1200.53H2643.76M2553.56 1290.73V1380.93M2553.56 1290.73H2643.76M2553.56 1380.93V1471.13M2553.56 1380.93H2643.76M2553.56 1471.13V1561.33M2553.56 1471.13H2643.76M2553.56 1561.33V1651.54M2553.56 1561.33H2643.76M2553.56 1651.54V1741.74M2553.56 1651.54H2643.76M2553.56 1741.74V1831.94M2553.56 1741.74H2643.76M2553.56 1831.94H2643.76M2643.76 27.9014V118.103M2643.76 27.9014H2733.97M2643.76 118.103V208.305M2643.76 118.103H2733.97M2643.76 208.305V298.507M2643.76 208.305H2733.97M2643.76 298.507V388.709M2643.76 298.507H2733.97M2643.76 388.709V478.911M2643.76 388.709H2733.97M2643.76 478.911V569.113M2643.76 478.911H2733.97M2643.76 569.113V659.315M2643.76 569.113H2733.97M2643.76 659.315V749.517M2643.76 659.315H2733.97M2643.76 749.517V839.718M2643.76 749.517H2733.97M2643.76 839.718V929.92M2643.76 839.718H2733.97M2643.76 929.92V1020.12M2643.76 929.92H2733.97M2643.76 1020.12V1110.32M2643.76 1020.12H2733.97M2643.76 1110.32V1200.53M2643.76 1110.32H2733.97M2643.76 1200.53V1290.73M2643.76 1200.53H2733.97M2643.76 1290.73V1380.93M2643.76 1290.73H2733.97M2643.76 1380.93V1471.13M2643.76 1380.93H2733.97M2643.76 1471.13V1561.33M2643.76 1471.13H2733.97M2643.76 1561.33V1651.54M2643.76 1561.33H2733.97M2643.76 1651.54V1741.74M2643.76 1651.54H2733.97M2643.76 1741.74V1831.94M2643.76 1741.74H2733.97M2643.76 1831.94H2733.97M2733.97 27.9014V118.103M2733.97 27.9014H2824.17M2733.97 118.103V208.305M2733.97 118.103H2824.17M2733.97 208.305V298.507M2733.97 208.305H2824.17M2733.97 298.507V388.709M2733.97 298.507H2824.17M2733.97 388.709V478.911M2733.97 388.709H2824.17M2733.97 478.911V569.113M2733.97 478.911H2824.17M2733.97 569.113V659.315M2733.97 569.113H2824.17M2733.97 659.315V749.517M2733.97 659.315H2824.17M2733.97 749.517V839.718M2733.97 749.517H2824.17M2733.97 839.718V929.92M2733.97 839.718H2824.17M2733.97 929.92V1020.12M2733.97 929.92H2824.17M2733.97 1020.12V1110.32M2733.97 1020.12H2824.17M2733.97 1110.32V1200.53M2733.97 1110.32H2824.17M2733.97 1200.53V1290.73M2733.97 1200.53H2824.17M2733.97 1290.73V1380.93M2733.97 1290.73H2824.17M2733.97 1380.93V1471.13M2733.97 1380.93H2824.17M2733.97 1471.13V1561.33M2733.97 1471.13H2824.17M2733.97 1561.33V1651.54M2733.97 1561.33H2824.17M2733.97 1651.54V1741.74M2733.97 1651.54H2824.17M2733.97 1741.74V1831.94M2733.97 1741.74H2824.17M2733.97 1831.94H2824.17M2824.17 27.9014V118.103M2824.17 27.9014H2914.37M2824.17 118.103V208.305M2824.17 118.103H2914.37M2824.17 208.305V298.507M2824.17 208.305H2914.37M2824.17 298.507V388.709M2824.17 298.507H2914.37M2824.17 388.709V478.911M2824.17 388.709H2914.37M2824.17 478.911V569.113M2824.17 478.911H2914.37M2824.17 569.113V659.315M2824.17 569.113H2914.37M2824.17 659.315V749.517M2824.17 659.315H2914.37M2824.17 749.517V839.718M2824.17 749.517H2914.37M2824.17 839.718V929.92M2824.17 839.718H2914.37M2824.17 929.92V1020.12M2824.17 929.92H2914.37M2824.17 1020.12V1110.32M2824.17 1020.12H2914.37M2824.17 1110.32V1200.53M2824.17 1110.32H2914.37M2824.17 1200.53V1290.73M2824.17 1200.53H2914.37M2824.17 1290.73V1380.93M2824.17 1290.73H2914.37M2824.17 1380.93V1471.13M2824.17 1380.93H2914.37M2824.17 1471.13V1561.33M2824.17 1471.13H2914.37M2824.17 1561.33V1651.54M2824.17 1561.33H2914.37M2824.17 1651.54V1741.74M2824.17 1651.54H2914.37M2824.17 1741.74V1831.94M2824.17 1741.74H2914.37M2824.17 1831.94H2914.37M2914.37 27.9014V118.103M2914.37 27.9014H3004.57M2914.37 118.103V208.305M2914.37 118.103H3004.57M2914.37 208.305V298.507M2914.37 208.305H3004.57M2914.37 298.507V388.709M2914.37 298.507H3004.57M2914.37 388.709V478.911M2914.37 388.709H3004.57M2914.37 478.911V569.113M2914.37 478.911H3004.57M2914.37 569.113V659.315M2914.37 569.113H3004.57M2914.37 659.315V749.517M2914.37 659.315H3004.57M2914.37 749.517V839.718M2914.37 749.517H3004.57M2914.37 839.718V929.92M2914.37 839.718H3004.57M2914.37 929.92V1020.12M2914.37 929.92H3004.57M2914.37 1020.12V1110.32M2914.37 1020.12H3004.57M2914.37 1110.32V1200.53M2914.37 1110.32H3004.57M2914.37 1200.53V1290.73M2914.37 1200.53H3004.57M2914.37 1290.73V1380.93M2914.37 1290.73H3004.57M2914.37 1380.93V1471.13M2914.37 1380.93H3004.57M2914.37 1471.13V1561.33M2914.37 1471.13H3004.57M2914.37 1561.33V1651.54M2914.37 1561.33H3004.57M2914.37 1651.54V1741.74M2914.37 1651.54H3004.57M2914.37 1741.74V1831.94M2914.37 1741.74H3004.57M2914.37 1831.94H3004.57M3004.57 27.9014V118.103M3004.57 27.9014H3094.77M3004.57 118.103V208.305M3004.57 118.103H3094.77M3004.57 208.305V298.507M3004.57 208.305H3094.77M3004.57 298.507V388.709M3004.57 298.507H3094.77M3004.57 388.709V478.911M3004.57 388.709H3094.77M3004.57 478.911V569.113M3004.57 478.911H3094.77M3004.57 569.113V659.315M3004.57 569.113H3094.77M3004.57 659.315V749.517M3004.57 659.315H3094.77M3004.57 749.517V839.718M3004.57 749.517H3094.77M3004.57 839.718V929.92M3004.57 839.718H3094.77M3004.57 929.92V1020.12M3004.57 929.92H3094.77M3004.57 1020.12V1110.32M3004.57 1020.12H3094.77M3004.57 1110.32V1200.53M3004.57 1110.32H3094.77M3004.57 1200.53V1290.73M3004.57 1200.53H3094.77M3004.57 1290.73V1380.93M3004.57 1290.73H3094.77M3004.57 1380.93V1471.13M3004.57 1380.93H3094.77M3004.57 1471.13V1561.33M3004.57 1471.13H3094.77M3004.57 1561.33V1651.54M3004.57 1561.33H3094.77M3004.57 1651.54V1741.74M3004.57 1651.54H3094.77M3004.57 1741.74V1831.94M3004.57 1741.74H3094.77M3004.57 1831.94H3094.77M3094.77 27.9014V118.103M3094.77 27.9014H3184.98M3094.77 118.103V208.305M3094.77 118.103H3184.98M3094.77 208.305V298.507M3094.77 208.305H3184.98M3094.77 298.507V388.709M3094.77 298.507H3184.98M3094.77 388.709V478.911M3094.77 388.709H3184.98M3094.77 478.911V569.113M3094.77 478.911H3184.98M3094.77 569.113V659.315M3094.77 569.113H3184.98M3094.77 659.315V749.517M3094.77 659.315H3184.98M3094.77 749.517V839.718M3094.77 749.517H3184.98M3094.77 839.718V929.92M3094.77 839.718H3184.98M3094.77 929.92V1020.12M3094.77 929.92H3184.98M3094.77 1020.12V1110.32M3094.77 1020.12H3184.98M3094.77 1110.32V1200.53M3094.77 1110.32H3184.98M3094.77 1200.53V1290.73M3094.77 1200.53H3184.98M3094.77 1290.73V1380.93M3094.77 1290.73H3184.98M3094.77 1380.93V1471.13M3094.77 1380.93H3184.98M3094.77 1471.13V1561.33M3094.77 1471.13H3184.98M3094.77 1561.33V1651.54M3094.77 1561.33H3184.98M3094.77 1651.54V1741.74M3094.77 1651.54H3184.98M3094.77 1741.74V1831.94M3094.77 1741.74H3184.98M3094.77 1831.94H3184.98M3184.98 27.9014V118.103M3184.98 27.9014H3275.18M3184.98 118.103V208.305M3184.98 118.103H3275.18M3184.98 208.305V298.507M3184.98 208.305H3275.18M3184.98 298.507V388.709M3184.98 298.507H3275.18M3184.98 388.709V478.911M3184.98 388.709H3275.18M3184.98 478.911V569.113M3184.98 478.911H3275.18M3184.98 569.113V659.315M3184.98 569.113H3275.18M3184.98 659.315V749.517M3184.98 659.315H3275.18M3184.98 749.517V839.718M3184.98 749.517H3275.18M3184.98 839.718V929.92M3184.98 839.718H3275.18M3184.98 929.92V1020.12M3184.98 929.92H3275.18M3184.98 1020.12V1110.32M3184.98 1020.12H3275.18M3184.98 1110.32V1200.53M3184.98 1110.32H3275.18M3184.98 1200.53V1290.73M3184.98 1200.53H3275.18M3184.98 1290.73V1380.93M3184.98 1290.73H3275.18M3184.98 1380.93V1471.13M3184.98 1380.93H3275.18M3184.98 1471.13V1561.33M3184.98 1471.13H3275.18M3184.98 1561.33V1651.54M3184.98 1561.33H3275.18M3184.98 1651.54V1741.74M3184.98 1651.54H3275.18M3184.98 1741.74V1831.94M3184.98 1741.74H3275.18M3184.98 1831.94H3275.18M3275.18 27.9014V118.103M3275.18 27.9014H3365.38M3275.18 118.103V208.305M3275.18 118.103H3365.38M3275.18 208.305V298.507M3275.18 208.305H3365.38M3275.18 298.507V388.709M3275.18 298.507H3365.38M3275.18 388.709V478.911M3275.18 388.709H3365.38M3275.18 478.911V569.113M3275.18 478.911H3365.38M3275.18 569.113V659.315M3275.18 569.113H3365.38M3275.18 659.315V749.517M3275.18 659.315H3365.38M3275.18 749.517V839.718M3275.18 749.517H3365.38M3275.18 839.718V929.92M3275.18 839.718H3365.38M3275.18 929.92V1020.12M3275.18 929.92H3365.38M3275.18 1020.12V1110.32M3275.18 1020.12H3365.38M3275.18 1110.32V1200.53M3275.18 1110.32H3365.38M3275.18 1200.53V1290.73M3275.18 1200.53H3365.38M3275.18 1290.73V1380.93M3275.18 1290.73H3365.38M3275.18 1380.93V1471.13M3275.18 1380.93H3365.38M3275.18 1471.13V1561.33M3275.18 1471.13H3365.38M3275.18 1561.33V1651.54M3275.18 1561.33H3365.38M3275.18 1651.54V1741.74M3275.18 1651.54H3365.38M3275.18 1741.74V1831.94M3275.18 1741.74H3365.38M3275.18 1831.94H3365.38M3365.38 27.9014V118.103M3365.38 27.9014H3455.58M3365.38 118.103V208.305M3365.38 118.103H3455.58M3365.38 208.305V298.507M3365.38 208.305H3455.58M3365.38 298.507V388.709M3365.38 298.507H3455.58M3365.38 388.709V478.911M3365.38 388.709H3455.58M3365.38 478.911V569.113M3365.38 478.911H3455.58M3365.38 569.113V659.315M3365.38 569.113H3455.58M3365.38 659.315V749.517M3365.38 659.315H3455.58M3365.38 749.517V839.718M3365.38 749.517H3455.58M3365.38 839.718V929.92M3365.38 839.718H3455.58M3365.38 929.92V1020.12M3365.38 929.92H3455.58M3365.38 1020.12V1110.32M3365.38 1020.12H3455.58M3365.38 1110.32V1200.53M3365.38 1110.32H3455.58M3365.38 1200.53V1290.73M3365.38 1200.53H3455.58M3365.38 1290.73V1380.93M3365.38 1290.73H3455.58M3365.38 1380.93V1471.13M3365.38 1380.93H3455.58M3365.38 1471.13V1561.33M3365.38 1471.13H3455.58M3365.38 1561.33V1651.54M3365.38 1561.33H3455.58M3365.38 1651.54V1741.74M3365.38 1651.54H3455.58M3365.38 1741.74V1831.94M3365.38 1741.74H3455.58M3365.38 1831.94H3455.58M3455.58 27.9014V118.103M3455.58 27.9014H3545.78M3455.58 118.103V208.305M3455.58 118.103H3545.78M3455.58 208.305V298.507M3455.58 208.305H3545.78M3455.58 298.507V388.709M3455.58 298.507H3545.78M3455.58 388.709V478.911M3455.58 388.709H3545.78M3455.58 478.911V569.113M3455.58 478.911H3545.78M3455.58 569.113V659.315M3455.58 569.113H3545.78M3455.58 659.315V749.517M3455.58 659.315H3545.78M3455.58 749.517V839.718M3455.58 749.517H3545.78M3455.58 839.718V929.92M3455.58 839.718H3545.78M3455.58 929.92V1020.12M3455.58 929.92H3545.78M3455.58 1020.12V1110.32M3455.58 1020.12H3545.78M3455.58 1110.32V1200.53M3455.58 1110.32H3545.78M3455.58 1200.53V1290.73M3455.58 1200.53H3545.78M3455.58 1290.73V1380.93M3455.58 1290.73H3545.78M3455.58 1380.93V1471.13M3455.58 1380.93H3545.78M3455.58 1471.13V1561.33M3455.58 1471.13H3545.78M3455.58 1561.33V1651.54M3455.58 1561.33H3545.78M3455.58 1651.54V1741.74M3455.58 1651.54H3545.78M3455.58 1741.74V1831.94M3455.58 1741.74H3545.78M3455.58 1831.94H3545.78M3545.78 27.9014V118.103M3545.78 27.9014H3635.99M3545.78 118.103V208.305M3545.78 118.103H3635.99M3545.78 208.305V298.507M3545.78 208.305H3635.99M3545.78 298.507V388.709M3545.78 298.507H3635.99M3545.78 388.709V478.911M3545.78 388.709H3635.99M3545.78 478.911V569.113M3545.78 478.911H3635.99M3545.78 569.113V659.315M3545.78 569.113H3635.99M3545.78 659.315V749.517M3545.78 659.315H3635.99M3545.78 749.517V839.718M3545.78 749.517H3635.99M3545.78 839.718V929.92M3545.78 839.718H3635.99M3545.78 929.92V1020.12M3545.78 929.92H3635.99M3545.78 1020.12V1110.32M3545.78 1020.12H3635.99M3545.78 1110.32V1200.53M3545.78 1110.32H3635.99M3545.78 1200.53V1290.73M3545.78 1200.53H3635.99M3545.78 1290.73V1380.93M3545.78 1290.73H3635.99M3545.78 1380.93V1471.13M3545.78 1380.93H3635.99M3545.78 1471.13V1561.33M3545.78 1471.13H3635.99M3545.78 1561.33V1651.54M3545.78 1561.33H3635.99M3545.78 1651.54V1741.74M3545.78 1651.54H3635.99M3545.78 1741.74V1831.94M3545.78 1741.74H3635.99M3545.78 1831.94H3635.99M3635.99 27.9014V118.103M3635.99 27.9014H3726.19M3635.99 118.103V208.305M3635.99 118.103H3726.19M3635.99 208.305V298.507M3635.99 208.305H3726.19M3635.99 298.507V388.709M3635.99 298.507H3726.19M3635.99 388.709V478.911M3635.99 388.709H3726.19M3635.99 478.911V569.113M3635.99 478.911H3726.19M3635.99 569.113V659.315M3635.99 569.113H3726.19M3635.99 659.315V749.517M3635.99 659.315H3726.19M3635.99 749.517V839.718M3635.99 749.517H3726.19M3635.99 839.718V929.92M3635.99 839.718H3726.19M3635.99 929.92V1020.12M3635.99 929.92H3726.19M3635.99 1020.12V1110.32M3635.99 1020.12H3726.19M3635.99 1110.32V1200.53M3635.99 1110.32H3726.19M3635.99 1200.53V1290.73M3635.99 1200.53H3726.19M3635.99 1290.73V1380.93M3635.99 1290.73H3726.19M3635.99 1380.93V1471.13M3635.99 1380.93H3726.19M3635.99 1471.13V1561.33M3635.99 1471.13H3726.19M3635.99 1561.33V1651.54M3635.99 1561.33H3726.19M3635.99 1651.54V1741.74M3635.99 1651.54H3726.19M3635.99 1741.74V1831.94M3635.99 1741.74H3726.19M3635.99 1831.94H3726.19M3726.19 27.9014V118.103M3726.19 27.9014H3816.39M3726.19 118.103V208.305M3726.19 118.103H3816.39M3726.19 208.305V298.507M3726.19 208.305H3816.39M3726.19 298.507V388.709M3726.19 298.507H3816.39M3726.19 388.709V478.911M3726.19 388.709H3816.39M3726.19 478.911V569.113M3726.19 478.911H3816.39M3726.19 569.113V659.315M3726.19 569.113H3816.39M3726.19 659.315V749.517M3726.19 659.315H3816.39M3726.19 749.517V839.718M3726.19 749.517H3816.39M3726.19 839.718V929.92M3726.19 839.718H3816.39M3726.19 929.92V1020.12M3726.19 929.92H3816.39M3726.19 1020.12V1110.32M3726.19 1020.12H3816.39M3726.19 1110.32V1200.53M3726.19 1110.32H3816.39M3726.19 1200.53V1290.73M3726.19 1200.53H3816.39M3726.19 1290.73V1380.93M3726.19 1290.73H3816.39M3726.19 1380.93V1471.13M3726.19 1380.93H3816.39M3726.19 1471.13V1561.33M3726.19 1471.13H3816.39M3726.19 1561.33V1651.54M3726.19 1561.33H3816.39M3726.19 1651.54V1741.74M3726.19 1651.54H3816.39M3726.19 1741.74V1831.94M3726.19 1741.74H3816.39M3726.19 1831.94H3816.39M3816.39 27.9014V118.103M3816.39 27.9014H3906.59M3816.39 118.103V208.305M3816.39 118.103H3906.59M3816.39 208.305V298.507M3816.39 208.305H3906.59M3816.39 298.507V388.709M3816.39 298.507H3906.59M3816.39 388.709V478.911M3816.39 388.709H3906.59M3816.39 478.911V569.113M3816.39 478.911H3906.59M3816.39 569.113V659.315M3816.39 569.113H3906.59M3816.39 659.315V749.517M3816.39 659.315H3906.59M3816.39 749.517V839.718M3816.39 749.517H3906.59M3816.39 839.718V929.92M3816.39 839.718H3906.59M3816.39 929.92V1020.12M3816.39 929.92H3906.59M3816.39 1020.12V1110.32M3816.39 1020.12H3906.59M3816.39 1110.32V1200.53M3816.39 1110.32H3906.59M3816.39 1200.53V1290.73M3816.39 1200.53H3906.59M3816.39 1290.73V1380.93M3816.39 1290.73H3906.59M3816.39 1380.93V1471.13M3816.39 1380.93H3906.59M3816.39 1471.13V1561.33M3816.39 1471.13H3906.59M3816.39 1561.33V1651.54M3816.39 1561.33H3906.59M3816.39 1651.54V1741.74M3816.39 1651.54H3906.59M3816.39 1741.74V1831.94M3816.39 1741.74H3906.59M3816.39 1831.94H3906.59M3906.59 27.9014V118.103M3906.59 27.9014H3996.79V118.103M3906.59 118.103V208.305M3906.59 118.103H3996.79M3906.59 208.305V298.507M3906.59 208.305H3996.79M3906.59 298.507V388.709M3906.59 298.507H3996.79M3906.59 388.709V478.911M3906.59 388.709H3996.79M3906.59 478.911V569.113M3906.59 478.911H3996.79M3906.59 569.113V659.315M3906.59 569.113H3996.79M3906.59 659.315V749.517M3906.59 659.315H3996.79M3906.59 749.517V839.718M3906.59 749.517H3996.79M3906.59 839.718V929.92M3906.59 839.718H3996.79M3906.59 929.92V1020.12M3906.59 929.92H3996.79M3906.59 1020.12V1110.32M3906.59 1020.12H3996.79M3906.59 1110.32V1200.53M3906.59 1110.32H3996.79M3906.59 1200.53V1290.73M3906.59 1200.53H3996.79M3906.59 1290.73V1380.93M3906.59 1290.73H3996.79M3906.59 1380.93V1471.13M3906.59 1380.93H3996.79M3906.59 1471.13V1561.33M3906.59 1471.13H3996.79M3906.59 1561.33V1651.54M3906.59 1561.33H3996.79M3906.59 1651.54V1741.74M3906.59 1651.54H3996.79M3906.59 1741.74V1831.94M3906.59 1741.74H3996.79M3906.59 1831.94H3996.79V1741.74M3996.79 118.103V208.305M3996.79 208.305V298.507M3996.79 298.507V388.709M3996.79 388.709V478.911M3996.79 478.911V569.113M3996.79 569.113V659.315M3996.79 659.315V749.517M3996.79 749.517V839.718M3996.79 839.718V929.92M3996.79 929.92V1020.12M3996.79 1020.12V1110.32M3996.79 1110.32V1200.53M3996.79 1200.53V1290.73M3996.79 1290.73V1380.93M3996.79 1380.93V1471.13M3996.79 1471.13V1561.33M3996.79 1561.33V1651.54M3996.79 1651.54V1741.74" stroke="url(#paint0_radial_12_1147)" stroke-width="0.731699"/>
</g>
<g style="mix-blend-mode:soft-light" opacity="0.8">
<path d="M388.717 361.648V388.709M388.717 388.709V415.769M388.717 388.709H361.656M388.717 388.709H415.777M388.717 1083.26V1110.32M388.717 1110.32V1137.38M388.717 1110.32H361.656M388.717 1110.32H415.777M388.717 1804.88V1831.94M388.717 1831.94V1859M388.717 1831.94H361.656M388.717 1831.94H415.777M1110.33 361.648V388.709M1110.33 388.709V415.769M1110.33 388.709H1083.27M1110.33 388.709H1137.39M1110.33 1083.26V1110.32M1110.33 1110.32V1137.38M1110.33 1110.32H1083.27M1110.33 1110.32H1137.39M1110.33 1804.88V1831.94M1110.33 1831.94V1859M1110.33 1831.94H1083.27M1110.33 1831.94H1137.39M1831.95 361.648V388.709M1831.95 388.709V415.769M1831.95 388.709H1804.89M1831.95 388.709H1859.01M1831.95 1083.26V1110.32M1831.95 1110.32V1137.38M1831.95 1110.32H1804.89M1831.95 1110.32H1859.01M1831.95 1804.88V1831.94M1831.95 1831.94V1859M1831.95 1831.94H1804.89M1831.95 1831.94H1859.01M2553.56 361.648V388.709M2553.56 388.709V415.769M2553.56 388.709H2526.5M2553.56 388.709H2580.62M2553.56 1083.26V1110.32M2553.56 1110.32V1137.38M2553.56 1110.32H2526.5M2553.56 1110.32H2580.62M2553.56 1804.88V1831.94M2553.56 1831.94V1859M2553.56 1831.94H2526.5M2553.56 1831.94H2580.62M3275.18 361.648V388.709M3275.18 388.709V415.769M3275.18 388.709H3248.12M3275.18 388.709H3302.24M3275.18 1083.26V1110.32M3275.18 1110.32V1137.38M3275.18 1110.32H3248.12M3275.18 1110.32H3302.24M3275.18 1804.88V1831.94M3275.18 1831.94V1859M3275.18 1831.94H3248.12M3275.18 1831.94H3302.24M3996.79 361.648V388.709M3996.79 388.709V415.769M3996.79 388.709H3969.73M3996.79 388.709H4023.85M3996.79 1083.26V1110.32M3996.79 1110.32V1137.38M3996.79 1110.32H3969.73M3996.79 1110.32H4023.85M3996.79 1804.88V1831.94M3996.79 1831.94V1859M3996.79 1831.94H3969.73M3996.79 1831.94H4023.85M388.717 0.84082V27.9014M388.717 27.9014V54.962M388.717 27.9014H361.656M388.717 27.9014H415.777M388.717 722.456V749.517M388.717 749.517V776.577M388.717 749.517H361.656M388.717 749.517H415.777M388.717 1444.07V1471.13M388.717 1471.13V1498.19M388.717 1471.13H361.656M388.717 1471.13H415.777M1110.33 0.84082V27.9014M1110.33 27.9014V54.962M1110.33 27.9014H1083.27M1110.33 27.9014H1137.39M1110.33 722.456V749.517M1110.33 749.517V776.577M1110.33 749.517H1083.27M1110.33 749.517H1137.39M1110.33 1444.07V1471.13M1110.33 1471.13V1498.19M1110.33 1471.13H1083.27M1110.33 1471.13H1137.39M1831.95 0.84082V27.9014M1831.95 27.9014V54.962M1831.95 27.9014H1804.89M1831.95 27.9014H1859.01M1831.95 722.456V749.517M1831.95 749.517V776.577M1831.95 749.517H1804.89M1831.95 749.517H1859.01M1831.95 1444.07V1471.13M1831.95 1471.13V1498.19M1831.95 1471.13H1804.89M1831.95 1471.13H1859.01M2553.56 0.84082V27.9014M2553.56 27.9014V54.962M2553.56 27.9014H2526.5M2553.56 27.9014H2580.62M2553.56 722.456V749.517M2553.56 749.517V776.577M2553.56 749.517H2526.5M2553.56 749.517H2580.62M2553.56 1444.07V1471.13M2553.56 1471.13V1498.19M2553.56 1471.13H2526.5M2553.56 1471.13H2580.62M3275.18 0.84082V27.9014M3275.18 27.9014V54.962M3275.18 27.9014H3248.12M3275.18 27.9014H3302.24M3275.18 722.456V749.517M3275.18 749.517V776.577M3275.18 749.517H3248.12M3275.18 749.517H3302.24M3275.18 1444.07V1471.13M3275.18 1471.13V1498.19M3275.18 1471.13H3248.12M3275.18 1471.13H3302.24M3996.79 0.84082V27.9014M3996.79 27.9014V54.962M3996.79 27.9014H3969.73M3996.79 27.9014H4023.85M3996.79 722.456V749.517M3996.79 749.517V776.577M3996.79 749.517H3969.73M3996.79 749.517H4023.85M3996.79 1444.07V1471.13M3996.79 1471.13V1498.19M3996.79 1471.13H3969.73M3996.79 1471.13H4023.85M27.9092 361.648V388.709M27.9092 388.709V415.769M27.9092 388.709H0.848633M27.9092 388.709H54.9698M27.9092 1083.26V1110.32M27.9092 1110.32V1137.38M27.9092 1110.32H0.848633M27.9092 1110.32H54.9698M27.9092 1804.88V1831.94M27.9092 1831.94V1859M27.9092 1831.94H0.848633M27.9092 1831.94H54.9698M749.525 361.648V388.709M749.525 388.709V415.769M749.525 388.709H722.464M749.525 388.709H776.585M749.525 1083.26V1110.32M749.525 1110.32V1137.38M749.525 1110.32H722.464M749.525 1110.32H776.585M749.525 1804.88V1831.94M749.525 1831.94V1859M749.525 1831.94H722.464M749.525 1831.94H776.585M1471.14 361.648V388.709M1471.14 388.709V415.769M1471.14 388.709H1444.08M1471.14 388.709H1498.2M1471.14 1083.26V1110.32M1471.14 1110.32V1137.38M1471.14 1110.32H1444.08M1471.14 1110.32H1498.2M1471.14 1804.88V1831.94M1471.14 1831.94V1859M1471.14 1831.94H1444.08M1471.14 1831.94H1498.2M2192.76 361.648V388.709M2192.76 388.709V415.769M2192.76 388.709H2165.69M2192.76 388.709H2219.82M2192.76 1083.26V1110.32M2192.76 1110.32V1137.38M2192.76 1110.32H2165.69M2192.76 1110.32H2219.82M2192.76 1804.88V1831.94M2192.76 1831.94V1859M2192.76 1831.94H2165.69M2192.76 1831.94H2219.82M2914.37 361.648V388.709M2914.37 388.709V415.769M2914.37 388.709H2887.31M2914.37 388.709H2941.43M2914.37 1083.26V1110.32M2914.37 1110.32V1137.38M2914.37 1110.32H2887.31M2914.37 1110.32H2941.43M2914.37 1804.88V1831.94M2914.37 1831.94V1859M2914.37 1831.94H2887.31M2914.37 1831.94H2941.43M3635.99 361.648V388.709M3635.99 388.709V415.769M3635.99 388.709H3608.93M3635.99 388.709H3663.05M3635.99 1083.26V1110.32M3635.99 1110.32V1137.38M3635.99 1110.32H3608.93M3635.99 1110.32H3663.05M3635.99 1804.88V1831.94M3635.99 1831.94V1859M3635.99 1831.94H3608.93M3635.99 1831.94H3663.05M27.9092 0.840953V27.9015M27.9092 27.9015V54.9621M27.9092 27.9015H0.848633M27.9092 27.9015H54.9698M27.9092 722.456V749.517M27.9092 749.517V776.577M27.9092 749.517H0.848633M27.9092 749.517H54.9698M27.9092 1444.07V1471.13M27.9092 1471.13V1498.19M27.9092 1471.13H0.848633M27.9092 1471.13H54.9698M749.525 0.84082V27.9014M749.525 27.9014V54.962M749.525 27.9014H722.464M749.525 27.9014H776.585M749.525 722.456V749.517M749.525 749.517V776.577M749.525 749.517H722.464M749.525 749.517H776.585M749.525 1444.07V1471.13M749.525 1471.13V1498.19M749.525 1471.13H722.464M749.525 1471.13H776.585M1471.14 0.84082V27.9014M1471.14 27.9014V54.962M1471.14 27.9014H1444.08M1471.14 27.9014H1498.2M1471.14 722.456V749.517M1471.14 749.517V776.577M1471.14 749.517H1444.08M1471.14 749.517H1498.2M1471.14 1444.07V1471.13M1471.14 1471.13V1498.19M1471.14 1471.13H1444.08M1471.14 1471.13H1498.2M2192.76 0.84082V27.9014M2192.76 27.9014V54.962M2192.76 27.9014H2165.69M2192.76 27.9014H2219.82M2192.76 722.456V749.517M2192.76 749.517V776.577M2192.76 749.517H2165.69M2192.76 749.517H2219.82M2192.76 1444.07V1471.13M2192.76 1471.13V1498.19M2192.76 1471.13H2165.69M2192.76 1471.13H2219.82M2914.37 0.84082V27.9014M2914.37 27.9014V54.962M2914.37 27.9014H2887.31M2914.37 27.9014H2941.43M2914.37 722.456V749.517M2914.37 749.517V776.577M2914.37 749.517H2887.31M2914.37 749.517H2941.43M2914.37 1444.07V1471.13M2914.37 1471.13V1498.19M2914.37 1471.13H2887.31M2914.37 1471.13H2941.43M3635.99 0.84082V27.9014M3635.99 27.9014V54.962M3635.99 27.9014H3608.93M3635.99 27.9014H3663.05M3635.99 722.456V749.517M3635.99 749.517V776.577M3635.99 749.517H3608.93M3635.99 749.517H3663.05M3635.99 1444.07V1471.13M3635.99 1471.13V1498.19M3635.99 1471.13H3608.93M3635.99 1471.13H3663.05" stroke="url(#paint1_radial_12_1147)" stroke-width="1.4634"/>
</g>
<defs>
<radialGradient id="paint0_radial_12_1147" cx="0" cy="0" r="1" gradientUnits="userSpaceOnUse" gradientTransform="translate(2012.35 929.92) rotate(90) scale(902.019 1602.47)">
<stop offset="0.665789" stop-color="white"/>
<stop offset="1" stop-color="#01C38E" stop-opacity="0.3"/>
</radialGradient>
<radialGradient id="paint1_radial_12_1147" cx="0" cy="0" r="1" gradientUnits="userSpaceOnUse" gradientTransform="translate(2012.35 929.92) rotate(90) scale(929.079 1624.32)">
<stop offset="0.665789" stop-color="white"/>
<stop offset="1" stop-color="white" stop-opacity="0.3"/>
</radialGradient>
</defs>
</svg>
