<svg width="371" height="371" viewBox="0 0 371 371" fill="none" xmlns="http://www.w3.org/2000/svg">
<path d="M52.3308 125.665C53.5534 127.932 55.3737 129.828 57.5926 131.142L113.501 164.28L113.162 146.911C112.704 123.538 124.526 102.787 142.708 90.8088L127.989 63.5249C126.766 61.2575 124.946 59.3618 122.727 58.0477L28.1491 1.9881C21.3955 -2.01346 12.6815 0.216215 8.67996 6.96448L2.10932 18.0482C-0.432724 22.3406 -0.540448 27.6509 1.82925 32.0402L52.3308 125.66V125.665Z" fill="white"/>
<path d="M114.743 227.17L114.511 215.505L63.5303 243.004C61.263 244.227 59.3672 246.047 58.0531 248.266L1.98811 342.839C-2.01346 349.592 0.21621 358.306 6.96447 362.308L18.0483 368.878C22.3406 371.421 27.6509 371.528 32.0403 369.159L125.66 318.657C127.927 317.434 129.823 315.614 131.137 313.395L148.883 283.462C128.929 272.545 115.217 251.541 114.737 227.17H114.743Z" fill="white"/>
<path d="M364.031 8.68836L352.947 2.11783C348.655 -0.424215 343.344 -0.531929 338.955 1.83777L245.336 52.3393C243.068 53.5619 241.172 55.3822 239.858 57.6011L222.215 87.3732C242.6 98.1661 256.672 119.396 257.157 144.09L257.373 155.028L307.475 128.003C309.743 126.78 311.639 124.96 312.953 122.741L369.012 28.1684C373.014 21.4147 370.784 12.7007 364.036 8.69913L364.031 8.68836Z" fill="white"/>
<path d="M318.661 245.329C317.438 243.062 315.618 241.166 313.399 239.852L258.39 207.241L258.724 224.336C259.187 247.946 247.117 268.886 228.623 280.799L243.003 307.458C244.225 309.726 246.046 311.621 248.265 312.936L342.837 369C349.591 373.002 358.305 370.772 362.306 364.024L368.877 352.94C371.419 348.648 371.527 343.338 369.157 338.948L318.655 245.329H318.661Z" fill="white"/>
<path d="M130.213 182.328V158.023C130.213 143.137 136.008 129.145 146.537 118.616C157.061 108.092 171.058 102.292 185.944 102.292C216.675 102.292 241.675 127.292 241.675 158.023V182.328H130.213ZM185.944 102.324C171.693 102.324 158.299 107.871 148.228 117.948C138.151 128.025 132.604 141.419 132.604 155.669V182.296H239.284V155.669C239.284 126.258 215.355 102.33 185.944 102.33V102.324Z" fill="#0C0E0C"/>
<path d="M185.943 99.058C169.662 99.058 154.922 105.655 144.253 116.324C133.584 126.994 126.986 141.734 126.986 158.015V185.547H244.906V158.015C244.906 125.453 218.505 99.058 185.949 99.058H185.943ZM135.83 179.062V155.662C135.83 141.82 141.441 129.293 150.506 120.224C159.575 111.154 172.102 105.548 185.943 105.548C213.62 105.548 236.057 127.984 236.057 155.662V179.062H135.83Z" fill="white"/>
<path d="M244.9 185.553V213.246C244.9 245.808 218.5 272.209 185.943 272.209C153.387 272.209 126.986 245.808 126.986 213.246V185.553" fill="white"/>
</svg>
